<?xml version="1.0" encoding="utf-8"?>
<!-- Generator: Adobe Illustrator 28.2.0, SVG Export Plug-In . SVG Version: 6.00 Build 0)  -->
<svg version="1.1" id="Capa_1" xmlns="http://www.w3.org/2000/svg" xmlns:xlink="http://www.w3.org/1999/xlink" x="0px" y="0px"
	 viewBox="0 0 800 800" style="enable-background:new 0 0 800 800;" xml:space="preserve">
<style type="text/css">
	.st0{fill:#FFFFFF;}
</style>
<g>
	<g>
		<path class="st0" d="M554,0c1.9,0,3.7,0,5.7,0c4.6,56.4-17,98.6-43.1,129.1c-25.7,30.3-60.8,59.7-117.7,55.3
			c-3.8-55.6,17.8-94.6,43.9-125.1C466.9,30.9,511.4,5.6,554,0z"/>
		<path class="st0" d="M726.1,587.2c0,0.6,0,1.1,0,1.6c-16,48.4-38.8,89.9-66.6,128.4c-25.4,35-56.5,82-112.1,82
			c-48,0-79.9-30.9-129.1-31.7c-52.1-0.8-80.7,25.8-128.3,32.5c-5.4,0-10.9,0-16.2,0c-35-5.1-63.2-32.7-83.7-57.7
			C129.5,668.6,82.6,573.4,73.9,451.6c0-11.9,0-23.9,0-35.8c3.7-87.2,46.1-158.1,102.4-192.4c29.7-18.3,70.6-33.8,116.1-26.9
			c19.5,3,39.4,9.7,56.9,16.3c16.5,6.4,37.2,17.6,56.8,17c13.3-0.4,26.5-7.3,39.9-12.2c39.2-14.2,77.6-30.4,128.3-22.8
			c60.9,9.2,104.1,36.3,130.8,78c-51.5,32.8-92.2,82.2-85.3,166.5C625.9,516,670.5,560.8,726.1,587.2z"/>
	</g>
</g>
</svg>
