<?xml version="1.0" encoding="utf-8"?>
<!-- Generator: Adobe Illustrator 28.2.0, SVG Export Plug-In . SVG Version: 6.00 Build 0)  -->
<svg version="1.1" xmlns="http://www.w3.org/2000/svg" xmlns:xlink="http://www.w3.org/1999/xlink" x="0px" y="0px"
	 viewBox="0 0 423.7 303.2" style="enable-background:new 0 0 423.7 303.2;" xml:space="preserve">
<style type="text/css">
	.st0{opacity:0.72;}
	.st1{clip-path:url(#SVGID_00000163774639515469766670000011581899023321643172_);}
	
		.st2{clip-path:url(#SVGID_00000109006701736135605520000018118764733179016580_);fill:url(#SVGID_00000073691091652206822380000006337088507668068500_);}
	
		.st3{opacity:0.5;clip-path:url(#SVGID_00000109006701736135605520000018118764733179016580_);fill:url(#SVGID_00000107560082835405167990000002685558947663572892_);}
	.st4{clip-path:url(#SVGID_00000109006701736135605520000018118764733179016580_);fill:#231912;}
	.st5{fill:#FFFFFF;}
	.st6{font-family:'GemunuLibre-ExtraLight';}
	.st7{font-size:23.6581px;}
	.st8{letter-spacing:2;}
	.st9{font-size:15.9573px;}
	.st10{letter-spacing:1;}
	.st11{font-size:15.7372px;}
	.st12{font-family:'Montserrat-Regular';}
	.st13{font-size:4.1611px;}
	.st14{font-size:8.3269px;}
	
		.st15{clip-path:url(#SVGID_00000008868897303468434610000003839480376141311362_);fill:url(#SVGID_00000078729772196000891290000015896144231196573321_);}
	.st16{clip-path:url(#SVGID_00000008868897303468434610000003839480376141311362_);}
	.st17{fill:url(#SVGID_00000062910798504779575060000005851061049624232619_);}
	.st18{fill:url(#SVGID_00000156557480403959521970000000832162794156670105_);}
	.st19{fill:url(#SVGID_00000140718507531663344470000007708664099059627162_);}
	.st20{fill:url(#SVGID_00000154421120396434147240000004584348767770716037_);}
	.st21{fill:url(#SVGID_00000123414759137473886030000005938623774896500653_);}
	.st22{fill:url(#SVGID_00000152975585632649265470000016454151242627091646_);}
	.st23{fill:url(#SVGID_00000028314230156968125490000001042575021816446363_);}
	.st24{fill:url(#SVGID_00000147213167459411226610000004814851143997155713_);}
	.st25{fill:url(#SVGID_00000142886277771952392930000010902011967680497582_);}
	.st26{fill:url(#SVGID_00000115495447620376931040000017697093040148078213_);}
	.st27{fill:url(#SVGID_00000070808853031961691940000006852114443576918170_);}
	.st28{fill:url(#SVGID_00000093134441569653548750000009104245004609722030_);}
	.st29{fill:url(#SVGID_00000018202123939313631620000015367892337575080101_);}
	.st30{fill:url(#SVGID_00000011024873276831663810000014806131616438279347_);}
	.st31{fill:url(#SVGID_00000124873913318007356180000014060132280684748975_);}
	.st32{fill:url(#SVGID_00000173141538582736785830000005757495709430667149_);}
	.st33{fill:url(#SVGID_00000136370552001647891870000004620923544510662833_);}
	.st34{fill:url(#SVGID_00000059283382714726916480000001902061398416812442_);}
	.st35{fill:url(#SVGID_00000073682935373557672070000006302421569457890713_);}
	.st36{fill:url(#SVGID_00000137842439347448500910000001992091028725606836_);}
	.st37{fill:url(#SVGID_00000160182005888850474970000018027679714309326000_);}
	.st38{fill:url(#SVGID_00000109743829577728719760000000725740424150435743_);}
	.st39{fill:url(#SVGID_00000000185976311810382580000009255743744908704445_);}
	.st40{fill:url(#SVGID_00000012455863629269452410000012022608775684268202_);}
	.st41{fill:url(#SVGID_00000111170805091755162330000013060584085700850848_);}
	.st42{fill:url(#SVGID_00000150069650691415698730000001565945472114614416_);}
	.st43{opacity:0.53;clip-path:url(#SVGID_00000008868897303468434610000003839480376141311362_);}
	.st44{opacity:0.5;}
	.st45{opacity:0.37;fill:#C1C1C1;}
	.st46{fill:#767676;}
	.st47{font-family:'Montserrat-Black';}
	.st48{font-size:14.8096px;}
	.st49{fill:#A3A3A3;}
	.st50{font-family:'Montserrat-SemiBold';}
	.st51{font-size:6.8354px;}
</style>
<g id="BACKGROUND">
</g>
<g id="OBJECTS">
	<g>
		<g class="st0">
			
				<image style="overflow:visible;" width="384" height="151" xlink:href="DD9C4A5F.png"  transform="matrix(1 0 0 1 19.8842 159.1895)">
			</image>
		</g>
		<g>
			<defs>
				<path id="SVGID_1_" d="M370.3,256.9H53.5c-6.9,0-12.6-5.6-12.6-12.6V46.1c0-6.9,5.6-12.6,12.6-12.6h316.8
					c6.9,0,12.6,5.6,12.6,12.6v198.2C382.8,251.2,377.2,256.9,370.3,256.9z"/>
			</defs>
			<clipPath id="SVGID_00000029017212300016846140000008021503704630613387_">
				<use xlink:href="#SVGID_1_"  style="overflow:visible;"/>
			</clipPath>
			<g style="clip-path:url(#SVGID_00000029017212300016846140000008021503704630613387_);">
				
					<image style="overflow:visible;" width="370" height="235" xlink:href="DD9C4A5D.png"  transform="matrix(1 0 0 1 27.8842 27.1895)">
				</image>
			</g>
			<g style="clip-path:url(#SVGID_00000029017212300016846140000008021503704630613387_);">
				<defs>
					<rect id="SVGID_00000116941659854092174300000007164126844539132560_" x="81.2" y="108.7" width="44.5" height="34.5"/>
				</defs>
				<clipPath id="SVGID_00000011020101302236469310000011928885758742335362_">
					<use xlink:href="#SVGID_00000116941659854092174300000007164126844539132560_"  style="overflow:visible;"/>
				</clipPath>
				
					<linearGradient id="SVGID_00000009574872247079782910000000952138808816748437_" gradientUnits="userSpaceOnUse" x1="82.7929" y1="109.0527" x2="126.3467" y2="144.7398">
					<stop  offset="0" style="stop-color:#B56110"/>
					<stop  offset="0.1507" style="stop-color:#B56110"/>
					<stop  offset="0.4638" style="stop-color:#E5AD5C"/>
					<stop  offset="0.6129" style="stop-color:#F9CC7B"/>
					<stop  offset="0.7204" style="stop-color:#FFE6A6"/>
					<stop  offset="0.8387" style="stop-color:#F9CC7B"/>
					<stop  offset="1" style="stop-color:#B56110"/>
				</linearGradient>
				
					<path style="clip-path:url(#SVGID_00000011020101302236469310000011928885758742335362_);fill:url(#SVGID_00000009574872247079782910000000952138808816748437_);" d="
					M120.7,143.3H86.3c-2.8,0-5.1-2.3-5.1-5.1v-24.4c0-2.8,2.3-5.1,5.1-5.1h34.3c2.8,0,5.1,2.3,5.1,5.1v24.4
					C125.7,141,123.5,143.3,120.7,143.3z"/>
				
					<linearGradient id="SVGID_00000048465388961921526950000005642066751162345628_" gradientUnits="userSpaceOnUse" x1="77.9879" y1="125.5886" x2="128.2207" y2="125.5886">
					<stop  offset="0" style="stop-color:#B56110"/>
					<stop  offset="0.1507" style="stop-color:#B56110"/>
					<stop  offset="0.4638" style="stop-color:#E5AD5C"/>
					<stop  offset="0.6129" style="stop-color:#F9CC7B"/>
					<stop  offset="0.7204" style="stop-color:#FFE6A6"/>
					<stop  offset="0.8387" style="stop-color:#F9CC7B"/>
					<stop  offset="1" style="stop-color:#B56110"/>
				</linearGradient>
				
					<path style="opacity:0.5;clip-path:url(#SVGID_00000011020101302236469310000011928885758742335362_);fill:url(#SVGID_00000048465388961921526950000005642066751162345628_);" d="
					M128.2,126v-0.8h-19.1v-5.1l4.3-4.3h13.4v-0.8h-13.7l-4.5,4.5h-5.1v-12.7h-0.8v12.7h-5.1l-4.5-4.5H79.4v0.8h13.4l4.3,4.3v5.1H78
					v0.8h19.1v5.1l-4.7,4.7h-13v0.8h13.3l4.9-4.9h5.1v12.7h0.8v-12.7h5.1l4.9,4.9h13.3v-0.8h-13l-4.7-4.7V126H128.2z M108.4,130.8
					H97.9v-10.5h10.5V130.8z"/>
				<path style="clip-path:url(#SVGID_00000011020101302236469310000011928885758742335362_);fill:#231912;" d="M128.6,126.4v-0.8
					h-19.1v-5.1l4.3-4.3h13.4v-0.8h-13.7L109,120h-5.1v-12.7h-0.8V120H98l-4.5-4.5H79.8v0.8h13.4l4.3,4.3v5.1H78.4v0.8h19.1v5.1
					l-4.7,4.7h-13v0.8h13.3L98,132h5.1v12.7h0.8V132h5.1l4.9,4.9h13.3v-0.8h-13l-4.7-4.7v-5.1H128.6z M108.7,131.3H98.2v-10.5h10.5
					V131.3z"/>
			</g>
			<g style="clip-path:url(#SVGID_00000029017212300016846140000008021503704630613387_);">
				<text transform="matrix(1 0 0 1 73.9008 175.5606)" class="st5 st6 st7 st8">4532  3100  9999  1048</text>
				<text transform="matrix(1 0 0 1 73.3295 242.7119)" class="st5 st6 st9 st10">JOHN DOE</text>
				<g>
					<g>
						<text transform="matrix(1 0 0 1 146.8915 210.6279)" class="st5 st6 st11 st10">00-00</text>
						<text transform="matrix(1 0 0 1 124.9369 204.4395)"><tspan x="0" y="0" class="st5 st12 st13">EXPIRES</tspan><tspan x="8.5" y="5" class="st5 st12 st13">END</tspan></text>
					</g>
					<g>
						<text transform="matrix(1 0 0 1 151.7314 196.3252)" class="st5 st12 st13">MONTH/YEAR</text>
					</g>
				</g>
				<g>
					<text transform="matrix(1 0 0 1 74.7416 196.9649)" class="st5 st12 st14">4532</text>
				</g>
			</g>
			<g style="clip-path:url(#SVGID_00000029017212300016846140000008021503704630613387_);">
				<defs>
					<rect id="SVGID_00000009550193366196790860000016527051400548418742_" x="302" y="110.9" width="49.7" height="34.3"/>
				</defs>
				<clipPath id="SVGID_00000119816772891408735520000007007948684087188104_">
					<use xlink:href="#SVGID_00000009550193366196790860000016527051400548418742_"  style="overflow:visible;"/>
				</clipPath>
				
					<linearGradient id="SVGID_00000082326675383927244240000013095922848599888548_" gradientUnits="userSpaceOnUse" x1="292.4447" y1="128.0202" x2="360.153" y2="128.0202">
					<stop  offset="0" style="stop-color:#B5B5B5"/>
					<stop  offset="0.1507" style="stop-color:#B5B5B5"/>
					<stop  offset="0.3873" style="stop-color:#DADADA"/>
					<stop  offset="0.6129" style="stop-color:#F9F9F9"/>
					<stop  offset="0.7204" style="stop-color:#FFFFFF"/>
					<stop  offset="0.8387" style="stop-color:#F9F9F9"/>
					<stop  offset="1" style="stop-color:#B5B5B5"/>
				</linearGradient>
				
					<path style="clip-path:url(#SVGID_00000119816772891408735520000007007948684087188104_);fill:url(#SVGID_00000082326675383927244240000013095922848599888548_);" d="
					M347,145.2h-40.2c-2.6,0-4.8-2.1-4.8-4.8v-24.8c0-2.6,2.1-4.8,4.8-4.8H347c2.6,0,4.8,2.1,4.8,4.8v24.8
					C351.8,143,349.6,145.2,347,145.2z"/>
				<g style="clip-path:url(#SVGID_00000119816772891408735520000007007948684087188104_);">
					
						<linearGradient id="SVGID_00000073694043801347836900000014752439726460043648_" gradientUnits="userSpaceOnUse" x1="354.3981" y1="116.7217" x2="264.9778" y2="156.9863">
						<stop  offset="0" style="stop-color:#B5B5B5"/>
						<stop  offset="0.1507" style="stop-color:#B5B5B5"/>
						<stop  offset="0.3873" style="stop-color:#DADADA"/>
						<stop  offset="0.6129" style="stop-color:#F9F9F9"/>
						<stop  offset="0.7204" style="stop-color:#FFFFFF"/>
						<stop  offset="0.8387" style="stop-color:#F9F9F9"/>
						<stop  offset="1" style="stop-color:#B5B5B5"/>
					</linearGradient>
					<path style="fill:url(#SVGID_00000073694043801347836900000014752439726460043648_);" d="M333.3,128.9c0.1,0.6,0.1,0.6,0.6,0.4
						c0.1-0.1,0.2-0.1,0.3-0.2c0.1,0,0.2-0.1,0.5-0.1c-0.1,0.3-0.1,0.6-0.2,0.9c-0.2,0.8-1,1.2-1.4,1.8c-0.4,0.5-0.5,0.9-0.3,1.5
						c0.3,0.7,0.2,1.3-0.5,1.7c-0.3,0.2-0.3,0.5-0.2,0.8c0,0.1,0.1,0.2,0.1,0.3c-0.5,0.6-0.8,1.3-1.4,1.8c-0.3,0.3-0.9,0.3-1.3,0.3
						c-0.1,0-0.2-0.3-0.3-0.5c-0.1-0.3-0.2-0.6-0.3-0.8c-0.1-0.2-0.1-0.4-0.2-0.6c-0.1-0.3-0.2-0.6-0.3-0.9
						c-0.3-0.6-0.5-1.1,0.2-1.7c-0.2-0.5-0.3-1-0.6-1.5c-0.3-0.4-0.3-0.8-0.1-1.3c0.1-0.2,0-0.4-0.3-0.3c-0.3,0.1-0.4,0-0.5-0.2
						c-0.2-0.3-0.3-0.3-0.6-0.1c-0.2,0.1-0.4,0.1-0.7,0.2c-0.2,0-0.3,0-0.5,0c-0.7,0.1-1-0.1-1.3-0.7c-0.2-0.3-0.6-0.6-0.6-1
						c0-0.6,0-1.3,0.2-1.9c0.1-0.4,0.5-0.7,0.8-1c0.1-0.1,0.1-0.2,0.2-0.3c0.2-0.3,0.3-0.6,0.5-0.9c0-0.1,0.1-0.2,0.2-0.1
						c0.9,0.2,1.6-0.5,2.5-0.4c0.1,0,0.3,0.1,0.4,0.2c0.1,0.1,0,0.3,0,0.5c0.3,0.2,0.7,0.4,1.1,0.6c0.2,0.1,0.6-0.2,0.9-0.3
						c0.5,0.1,1.2,0.2,1.8,0.3c0.1,0,0.3-0.3,0.4-0.5c0.1-0.1,0-0.3,0-0.5c-0.7-0.1-1.6,0.3-1.6-1c-0.2,0.1-0.3,0.2-0.5,0.2
						c0.4,0.4,0.2,0.6-0.2,0.7c-0.2-0.3-0.4-0.6-0.5-1c-0.2-0.5-0.6-0.7-1.1-0.9c0,0-0.2,0-0.2,0c0,0,0,0.1,0,0.2
						c0.1,0.1,0.3,0.2,0.4,0.3c0.4,0.2,0.4,0.2,0.3,0.6c-0.4-0.3-0.8-0.5-1.2-0.8c-0.2,0.1-0.6,0.1-0.8,0.2
						c-0.3,0.2-0.5,0.5-0.8,0.7c-0.2,0.2-0.3,0.4-0.5,0.5c-0.3,0.1-0.8,0.1-0.9-0.2c-0.1-0.2,0.1-0.7,0.2-1c0-0.1,0.3-0.1,0.5-0.1
						c0.3,0,0.6,0.1,0.7-0.3c0-0.2-0.1-0.5-0.2-0.7c0.5-0.3,1.1-0.7,1.6-1c0.1-0.3,0.2-0.5,0.3-0.8c0.4,1.2,1.3,0.2,1.8,0.5
						c0.2-0.9,1-0.9,1.8-1c0,0,0-0.1,0-0.1c-0.2,0-0.5,0.1-0.7,0.1c-0.2,0-0.5-0.1-0.6-0.2c-0.2-0.2,0-0.5,0.3-0.6
						c0.1,0,0.1-0.1,0.3-0.2c-0.7-0.1-0.9,0.6-1.5,0.6c0.2,0.2,0.3,0.3,0.4,0.5c-0.3,0.3-0.6,0.6-1,1c-0.1-0.2-0.1-0.3-0.1-0.4
						c-0.2-0.3-0.3-0.6-0.7-0.3c-0.1,0.1-0.3-0.1-0.5-0.2c0.1-0.2,0.1-0.5,0.3-0.6c0.7-0.2,1.2-0.6,1.6-1.2c0.2-0.2,0.7-0.3,1.1-0.4
						c1-0.2,1.9,0.3,2.8,0.5c0.1,0,0.1,0.1,0.2,0.3c-0.6,0-1.1-0.1-1.6-0.1c0,0,0,0.1,0,0.1c0.1,0,0.2,0.1,0.3,0.1
						c0.1,0,0.2,0,0.3,0.1c0.5,0.4,0.7,0.4,1.1,0c0.2-0.2,0.6-0.1,0.6-0.6c0.1,0,0.3,0,0.3,0c0.1,0.4,0.3,0.2,0.4,0.2
						c0.7-0.1,1.5-0.2,2.2-0.4c0.1,0,0.2,0,0.3,0c0.2,0,0.5,0.1,0.8,0.2c-0.2-0.2-0.3-0.3-0.3-0.3c0.1-0.2,0.2-0.4,0.3-0.5
						c0.1-0.1,0.3-0.2,0.4-0.1c0.1,0.1,0.3,0.2,0.3,0.4c0,0.4-0.1,0.7-0.1,1.1c0.7-0.1,0.2-0.9,0.5-1.4c0,0.2,0.1,0.3,0.1,0.5
						c0.1-0.2,0.2-0.4,0.4-0.6c0.3,0.2,0.6,0.4,0.9,0.6c0,0,0.1,0,0.1-0.1c-0.2-0.2-0.4-0.4-0.6-0.6c0.8-0.2,1.6-0.4,2.4-0.6
						c0.2,0,0.3,0,0.5,0c0.1,0,0.3,0,0.4,0c0.8-0.5,1.7,0.1,2.5-0.1c-0.1,0.3-0.1,0.4-0.1,0.6c0.7-0.1,1.3-0.1,1.9-0.2
						c0.3,0,0.8-0.2,0.8,0.4c0,0.1,0.1,0.2,0.2,0.2c0.5-0.1,0.9-0.1,1.4-0.2c0.1,0,0.2-0.2,0.3-0.3c-0.1-0.1-0.2-0.2-0.3-0.2
						c-0.1-0.1-0.2-0.1-0.3-0.1c0-0.1,0-0.1,0-0.2c0.5,0,0.9,0.1,1.4,0.1c0,0,0,0.1,0,0.1c-0.1,0.1-0.3,0.1-0.4,0.2c0,0,0,0.1,0,0.1
						c1.6,0.3,3.1,0.5,4.7,0.8c0.2-0.2,0.9-0.2,1.7,0c0,0.3-0.1,0.6-0.1,1c0,0-0.1,0-0.1,0c0.1,0.1,0.1,0.1,0.2,0.2
						c0,0-0.1,0.1-0.1,0.1c-0.4,0.1-0.7,0.2-1.1,0.3c-0.3,0.1-0.7,0.1-1,0.1c-0.4,0-0.6,0.1-0.6,0.5c0,0.1,0,0.2-0.1,0.3
						c-0.4,0.4-0.8,0.9-1.2,1.3c0-0.3,0-0.7-0.1-1c-0.1-0.4,0.2-0.6,0.5-0.7c0.3-0.1,0.6-0.3,1-0.4c-0.4,0-0.6,0-0.8-0.1
						c0-0.1,0-0.1,0-0.2c-0.1,0.1-0.2,0.2-0.4,0.3c-0.4,0.2-0.7,0.3-1.1,0.3c-0.6,0-1.5-0.3-1.9,0.5c-0.1,0.1-0.3,0.2-0.6,0.4
						c0.4,0.1,0.7,0.1,1,0.1c0.3,0,0.7,0.6,0.5,0.9c-0.1,0.2-0.1,0.4-0.2,0.6c-0.2-0.1-0.2-0.1-0.2-0.9c-0.3,0.4-0.6,0.9-1,1.3
						c-0.1,0.1-0.4,0.1-0.5,0.2c-0.1,0.1-0.3,0.1-0.4,0.3c-0.1,0.1-0.2,0.3-0.4,0.4c0.4,0.6,0.3,1-0.3,1c-0.3-0.1,0.4-0.7-0.3-0.6
						c0-0.2,0-0.3,0-0.5c-0.2,0.1-0.3,0.2-0.5,0.2c0-0.1,0-0.3-0.1-0.5c-0.2,0.2-0.3,0.3-0.5,0.5c0.2,0.1,0.4,0.2,0.7,0.4
						c-0.1,0.1-0.2,0.2-0.4,0.3c0.7,1.2,0,2.4-1.6,2.6c-0.1,0.3-0.1,0.5-0.2,0.8c-0.1,0-0.1,0-0.2,0c0-0.3,0-0.5,0.1-0.8
						c-0.5,0.3-0.6,0.3-0.2,0.8c0.5,0.6,0.5,1,0.2,1.3c-0.2,0.1-0.4,0.3-0.6,0.4c-0.1-0.2-0.2-0.3-0.4-0.5c-0.1-0.1-0.2-0.3-0.3-0.4
						c-0.2,0.2-0.3,0.4-0.4,0.6l0,0c-0.1-0.4-0.1-0.8-0.2-1.3c-0.2,0.2-0.3,0.3-0.4,0.4c-0.2-0.5-0.3-0.9-0.5-1.4
						c-1-0.1-1.3,0.8-1.9,1.2c-0.1,0-0.1,0.3-0.1,0.4c-0.1,0.4-0.2,0.9-0.3,1.3c-0.1,0-0.1,0-0.2,0c-0.3-0.9-0.6-1.7-1-2.6
						c0,0-0.2,0-0.3-0.2c-0.4-0.7-0.5-0.8-1.3-0.6c-0.4,0.1-0.7-0.1-0.9-0.4c-0.7,0.4-0.9-0.3-1.3-0.7c-0.1,0-0.1,0.1-0.2,0.1
						c0.2,0.4,0.5,0.8,0.7,1.3c0.2-0.1,0.4-0.3,0.6-0.4c0,0,0.1,0.1,0.1,0.2c0.6,0.4,0.6,0.6,0.1,1.2
						C335.1,128.4,334.2,128.7,333.3,128.9c-0.1-0.9-1.1-2.9-1.6-3C332.2,126.9,332.4,128.1,333.3,128.9z M335.2,122.5
						c-0.1-0.4-0.2-0.5-0.6-0.3c-0.1,0.1-0.3,0.1-0.4,0.1c-0.4,0-0.4,0.3-0.3,0.5c0.2,0.2,0.4,0.4,0.6,0.6c-0.1,0.2-0.4,0.4-0.3,0.4
						c0.2,0.4,0.6,0.3,1.1,0.2c-0.2-0.5-0.5-1-0.7-1.6C334.8,122.6,334.9,122.5,335.2,122.5z M330.6,123.3c0.9,0,1.6,0,2.5,0
						c-0.4-0.3-0.6-0.5-0.9-0.8c0,0,0.1-0.1,0.1-0.2c0,0,0,0-0.1,0c-0.2,0.2-0.4,0.3-0.6,0.5c-0.2-0.2-0.3-0.3-0.5-0.6
						C331,122.6,330.8,122.9,330.6,123.3z"/>
					
						<linearGradient id="SVGID_00000178202189635966971230000005474781144826239889_" gradientUnits="userSpaceOnUse" x1="351.2278" y1="109.6809" x2="261.8072" y2="149.9456">
						<stop  offset="0" style="stop-color:#B5B5B5"/>
						<stop  offset="0.1507" style="stop-color:#B5B5B5"/>
						<stop  offset="0.3873" style="stop-color:#DADADA"/>
						<stop  offset="0.6129" style="stop-color:#F9F9F9"/>
						<stop  offset="0.7204" style="stop-color:#FFFFFF"/>
						<stop  offset="0.8387" style="stop-color:#F9F9F9"/>
						<stop  offset="1" style="stop-color:#B5B5B5"/>
					</linearGradient>
					<path style="fill:url(#SVGID_00000178202189635966971230000005474781144826239889_);" d="M306,116.9c-0.1-0.1-0.3-0.2-0.4-0.2
						c-0.1,0-0.3,0.1-0.5,0c0.3-0.3,0.6-0.5,1-0.3c0.4,0.1,0.7,0.5,1.2,0.1c0.1-0.1,0.4,0.1,0.6,0.2c0,0.1-0.1,0.2-0.1,0.3
						c0.3,0.3,0.5,0.5,0.8,0.9c-0.2,0.1-0.4,0.2-0.7,0.2c0,0,0,0.1,0,0.1c0.4,0,0.7,0,1.2,0c0-0.1,0-0.2,0-0.3c0,0,0.1-0.1,0.1-0.1
						c0.1,0.2,0.2,0.3,0.4,0.5c0.7-0.2,0-0.6,0.1-0.9c0.4,0.3,0.8,0.5,1.3,0.8c0.1-0.1,0.2-0.2,0.4-0.3c-0.3-0.3-0.9,0.1-0.9-0.6
						c0-0.1,0.3-0.3,0.5-0.3c0.1,0,0.3,0.2,0.4,0.3c0.3-0.3,1-0.4,1.5-0.2c0.3,0.2,0.7,0.3,1.1,0.4c0.1,0.1,0.3,0.2,0.4,0.3
						c0.4,0.2,0.7,0.4,1.1,0.6c-0.2,0.6-0.6,0.1-1,0.1c0.2,0.3,0.4,0.4,0.6,0.6c0,0.1-0.1,0.1-0.1,0.2c-0.8-0.2-1.6-0.4-2.5-0.5
						c0.4-0.2,0.7-0.4,1-0.6c0,0,0-0.1,0-0.1c-0.2,0.1-0.4,0.2-0.8,0.3c0.1-0.2,0.2-0.4,0.3-0.5c-0.4,0-0.7,0-1,0
						c0.2,0.5,0.2,0.5-0.7,0.6c0.3,0.1,0.5,0.2,0.8,0.3c0.1,0,0.1,0.1,0.1,0.2c0,0-0.1,0.1-0.2,0.1c-0.2-0.5-0.5,0-0.8,0
						c0-0.1,0-0.2,0-0.4c-0.4,0.2-0.8,0.4-1.1,0.6c-0.1,0.1-0.3,0.3-0.3,0.5c0,0.2,0.3,0.4,0.4,0.4c0.5,0.2,1,0.2,1.4,0.4
						c0.2,0.1,0.3,0.3,0.4,0.5c0.1,0.1,0.2,0.2,0.2,0.3c0,0,0.1-0.1,0.1-0.1c-0.1-0.2-0.1-0.4-0.2-0.7c0.1,0,0.3-0.1,0.4-0.1
						c-0.1-0.1-0.1-0.3-0.2-0.4c-0.2-0.4,0.1-0.9,0.5-0.8c0.4,0.1,0.9,0,1.1,0.6c0,0,0.3,0,0.5,0c0.1,0,0.3-0.1,0.4,0
						c0.3,0.4,0.6,0.7,1,0.9c0.3,0.1,0.7,0.5,0.1,0.8c0.3,0.2,0.5,0.3,0.7,0.4c0,0,0,0.1-0.1,0.1c-0.3,0-0.6,0-1,0
						c0.1-0.2,0.2-0.5,0.3-0.8c-0.4,0.2-0.7,0.4-1,0.6c-0.2-0.4-0.5-0.4-0.9,0c0.3,0,0.7-0.3,0.8,0.3c0,0,0.3,0.1,0.5,0.1
						c0.1,0,0.2,0,0.2,0c0,0.1,0,0.2,0,0.2c-0.3,0.1-0.7,0.2-1,0.3c0,0-0.1-0.1-0.1-0.2c-0.3,0.1-0.8,0-0.6,0.6
						c-0.6,0.1-0.8,0.4-1,1c-0.1,0.2-0.3,0.5-0.5,0.6c-0.4,0.2-0.5,0.5-0.2,0.9c0.1,0.2,0.1,0.4,0,0.7c-0.5-0.4-0.6-1.5-1.7-0.7
						c-0.8-0.3-1.2,0-1.2,0.9c0,0.4,0,0.7,0.3,1c0.3,0.2,0.6,0.1,0.7-0.1c0.2-0.5,0.5-0.3,0.8-0.3c-0.1,0.3-0.2,0.7-0.3,1
						c0.2,0,0.3,0,0.5,0c0.3,0,0.5,0.1,0.4,0.5c0,0.2-0.1,0.4,0,0.6c0,0.1,0.2,0.2,0.4,0.2c0.2,0,0.5,0,0.7,0.1
						c0.3-0.3,0.6-0.5,1-0.8c-0.1,0.4-0.1,0.6-0.1,0.7c0.2-0.6,0.6-0.3,0.9-0.3c0.3,0,0.7,0,0.9,0c0.1,0.2,0.2,0.3,0.3,0.4
						c0.3,0.3,0.5,0.5,1,0.5c0.3,0,0.7,0.8,0.5,1.1c0.6,0.2,1.1,0.3,1.7,0.5c0.9,0.2,1.2,0.9,0.7,1.6c-0.3,0.4-0.4,0.8-0.5,1.3
						c-0.1,0.5-0.2,1-0.9,1.1c-0.4,0.1-0.8,0.2-0.7,0.8c0,0,0,0.1,0,0.1c-0.3,0.4-0.6,0.8-1,1.2c-0.1,0.1-0.3,0.1-0.5,0.2
						c0.1,0.5-0.1,0.7-1,0.8c0,0.1,0,0.2,0,0.3c-0.1,0-0.3,0-0.4-0.1c0,0,0,0.1,0,0.1c0.1,0.1,0.2,0.1,0.3,0.2
						c-0.2,0.2-0.4,0.5-0.6,0.7c0.1,0.1,0.2,0.1,0.3,0.2c-0.2,0.3-0.5,0.5-0.6,0.8c-0.1,0.4,0.3,0.6,0.7,0.6
						c-0.4,0.2-0.8,0.3-1.2,0.1c-0.5-0.3-0.7-0.8-0.6-1.3c0.1-0.9,0.4-1.9,0.5-2.8c0.1-0.8,0.2-1.5,0.3-2.3c0.1-0.4-0.1-0.8-0.5-1
						c-0.5-0.2-0.7-0.7-0.9-1.2c-0.1-0.3-0.4-0.7-0.5-1c0-0.3,0-0.5,0-0.8c0-0.1,0.1-0.3,0.2-0.4c0.5-0.6,0.5-0.8,0.1-1.5
						c-0.1,0.1-0.2,0.2-0.5,0.3c-0.3-0.3-0.5-0.7-0.8-1c-0.1-0.1-0.2-0.2-0.3-0.2c-0.3-0.1-0.6-0.3-0.8-0.4c-0.1,0-0.2-0.1-0.2-0.1
						c-0.8,0.3-1.3-0.4-1.7-0.7c-0.3-0.3-0.4-0.9-0.8-1.2c-0.2-0.2-0.3-0.3-0.5-0.4c0.2,0.3,0.4,0.7,0.6,1c0,0,0,0,0,0.1
						c-0.1-0.1-0.3-0.1-0.4-0.3c-0.4-0.4-0.6-0.8-0.9-1.3c-0.1-0.2-0.4-0.4-0.5-0.7c-0.4-0.6-1-1.1-0.8-2c0.1-0.5,0-0.8-0.4-1
						c-0.1-0.1-0.2-0.2-0.2-0.3c-0.1-0.3-0.1-0.3-0.5-0.2c-0.1,0-0.4-0.2-0.4-0.3c0.1-0.5-0.4-0.6-0.6-0.8c-0.3-0.3-0.8-0.4-1.2-0.5
						c-0.4-0.1-0.9,0-1.4,0.1c0,0,0-0.1,0-0.1c0,0-0.1,0-0.1,0c0,0.2,0,0.4,0,0.5c0,0.1-0.2,0.3-0.2,0.3c-0.6-0.3-0.9,0.3-1.4,0.3
						c-0.1,0-0.2,0-0.4,0c0.3-0.2,0.6-0.4,1-0.6c-0.4-0.2-0.7-0.3-1-0.4c0,0,0,0.1-0.1,0.1c-0.1-0.2-0.2-0.3-0.4-0.5
						c0.3-0.1,0.6-0.3,1.1-0.4c-0.5,0-1,0.3-1.4-0.3c0.4,0,0.8,0,1.2,0c0,0,0,0,0.1-0.1c-0.3-0.1-0.5-0.3-0.8-0.4
						c0.6-0.2,1.1-0.4,1.5-0.6c0.4,0.1,0.7,0.1,1.1,0.2c0.8,0.1,1.5,0.2,2.3,0.3c0.3,0,0.6,0,0.9-0.1c0.9-0.2,1.7-0.1,2.7,0.2
						c-0.2-0.2-0.3-0.4-0.4-0.6c-0.4,0.5-0.7,0.2-1.1,0.1c0.1-0.1,0.2-0.3,0.2-0.4C305.1,117,305.6,116.9,306,116.9
						c0.3,0.2,0.6,0.4,1,0.3c0.2,0,0.4,0.1,0.6,0.1c0-0.3-0.2-0.4-0.5-0.3c-0.2,0-0.5,0.1-0.5,0C306.4,116.7,306.2,116.9,306,116.9z
						 M311,123.2c0,0,0.1,0,0.1,0c0.1-0.3,0.2-0.6,0.3-0.9c0.1,0,0.1,0,0.2,0c0.1,0.2,0.2,0.4,0.3,0.6c0.1-0.2,0.2-0.4,0.4-0.7
						c-0.4,0-0.8-0.1-1.1,0C311,122.4,311.1,122.9,311,123.2z"/>
					
						<linearGradient id="SVGID_00000161601438067337081980000010222554104190500522_" gradientUnits="userSpaceOnUse" x1="348.2859" y1="103.1469" x2="258.8643" y2="143.4121">
						<stop  offset="0" style="stop-color:#B5B5B5"/>
						<stop  offset="0.1507" style="stop-color:#B5B5B5"/>
						<stop  offset="0.3873" style="stop-color:#DADADA"/>
						<stop  offset="0.6129" style="stop-color:#F9F9F9"/>
						<stop  offset="0.7204" style="stop-color:#FFFFFF"/>
						<stop  offset="0.8387" style="stop-color:#F9F9F9"/>
						<stop  offset="1" style="stop-color:#B5B5B5"/>
					</linearGradient>
					<path style="fill:url(#SVGID_00000161601438067337081980000010222554104190500522_);" d="M321.9,117.1c-0.2,0-0.4,0-0.6,0.1
						c0.1,0.6-0.3,0.9-1.1,1c-0.2,0-0.5,0.2-0.7,0.3c-0.1,0-0.2,0.1-0.2,0.1c-0.6-0.1-0.8,0.4-1,0.8c-0.2,0.3-0.2,0.4-0.6,0.2
						c-0.5-0.2-0.8-0.6-1.1-1c-0.2-0.3-0.4-0.8-0.4-1.2c0-0.7-0.5-0.7-0.9-0.8c-0.3-0.1-0.7,0.1-1.1,0c-0.2,0-0.4-0.2-0.5-0.3
						c0.3-0.3,0.6-0.7,1.1-0.9c0.5-0.2,0.9-0.7,1.5-0.5c0.5,0.2,0.7,0,0.8-0.6c0.1,0.1,0.2,0.2,0.3,0.3c0.6-0.8,1.5-0.7,2.3-0.7
						c0.5,0,1,0.2,1.5,0.3c0,0.1,0.1,0.2,0.1,0.4c0.3,0.7,0.3,0.7,1,0.3c0.2-0.1,0.4,0,0.6-0.1c0,0.1,0,0.1,0.1,0.2
						c-0.3,0.3-0.7,0.5-0.9,0.9C321.8,116.3,321.9,116.7,321.9,117.1z"/>
					
						<linearGradient id="SVGID_00000134213186633695554080000014332484134456495772_" gradientUnits="userSpaceOnUse" x1="360.8897" y1="131.1379" x2="271.4683" y2="171.403">
						<stop  offset="0" style="stop-color:#B5B5B5"/>
						<stop  offset="0.1507" style="stop-color:#B5B5B5"/>
						<stop  offset="0.3873" style="stop-color:#DADADA"/>
						<stop  offset="0.6129" style="stop-color:#F9F9F9"/>
						<stop  offset="0.7204" style="stop-color:#FFFFFF"/>
						<stop  offset="0.8387" style="stop-color:#F9F9F9"/>
						<stop  offset="1" style="stop-color:#B5B5B5"/>
					</linearGradient>
					<path style="fill:url(#SVGID_00000134213186633695554080000014332484134456495772_);" d="M350.3,133.4c0.2,0.5,0.4,1.1,0.7,1.6
						c0.1,0.2,0.4,0.4,0.6,0.6c0.6,0.7,0.6,1.4,0.3,2.2c-0.2,0.3-0.2,0.8-0.7,1c-0.6,0.2-1.1,0.1-1.4-0.4c-0.1-0.2-0.3-0.4-0.4-0.6
						c-0.1,0.1-0.2,0.2-0.4,0.3c-0.2-0.5-0.6-0.8-1.1-0.6c-0.6,0.2-1.1,0.5-1.7,0.7c-0.1,0.1-0.4,0.1-0.5,0c-0.1-0.1,0-0.3,0-0.5
						c-0.1-0.3-0.1-0.5-0.2-0.8c-0.1-0.4-0.2-0.7-0.2-1.1c0-0.2,0.3-0.5,0.5-0.5c0.8-0.1,1.1-0.7,1.5-1.2c0.1-0.1,0.4-0.1,0.6-0.1
						c0,0,0,0.1,0.1,0.1c0.1-0.2,0.1-0.3,0.2-0.5c0.3,0,0.7,0,1.1,0c0,0.2-0.1,0.4-0.1,0.6c0.2,0.1,0.5,0.3,0.9,0.5
						c0.1-0.5,0.1-0.9,0.2-1.3C350.2,133.4,350.2,133.4,350.3,133.4z"/>
					
						<linearGradient id="SVGID_00000157299637739198762260000016077491292129743019_" gradientUnits="userSpaceOnUse" x1="359.5062" y1="128.0659" x2="270.086" y2="168.3304">
						<stop  offset="0" style="stop-color:#B5B5B5"/>
						<stop  offset="0.1507" style="stop-color:#B5B5B5"/>
						<stop  offset="0.3873" style="stop-color:#DADADA"/>
						<stop  offset="0.6129" style="stop-color:#F9F9F9"/>
						<stop  offset="0.7204" style="stop-color:#FFFFFF"/>
						<stop  offset="0.8387" style="stop-color:#F9F9F9"/>
						<stop  offset="1" style="stop-color:#B5B5B5"/>
					</linearGradient>
					<path style="fill:url(#SVGID_00000157299637739198762260000016077491292129743019_);" d="M351.5,133.4
						c-0.2-0.1-0.3-0.1-0.4-0.2c-0.3-0.3-0.5-0.8-0.9-0.1c0,0-0.2-0.1-0.3-0.1c-0.1-0.1-0.3-0.2-0.4-0.2c0.1-0.4-0.1-0.6-0.8-0.8
						c-0.2-0.3-0.3-0.4-0.4-0.7c0.6,0.1,1.2,0.1,1.7,0.3C350.8,132.1,351.4,132.9,351.5,133.4z"/>
					
						<linearGradient id="SVGID_00000071539892686120868230000008087775811078667198_" gradientUnits="userSpaceOnUse" x1="358.3105" y1="125.4105" x2="268.8904" y2="165.675">
						<stop  offset="0" style="stop-color:#B5B5B5"/>
						<stop  offset="0.1507" style="stop-color:#B5B5B5"/>
						<stop  offset="0.3873" style="stop-color:#DADADA"/>
						<stop  offset="0.6129" style="stop-color:#F9F9F9"/>
						<stop  offset="0.7204" style="stop-color:#FFFFFF"/>
						<stop  offset="0.8387" style="stop-color:#F9F9F9"/>
						<stop  offset="1" style="stop-color:#B5B5B5"/>
					</linearGradient>
					<path style="fill:url(#SVGID_00000071539892686120868230000008087775811078667198_);" d="M344.5,131.1c0.5-0.4,0.9-0.7,1.4-1.1
						c0,0.1,0.2,0.2,0.3,0.3c-0.1,0.5-0.3,1.1-0.4,1.6C344.9,131.9,344.7,132.1,344.5,131.1z"/>
					
						<linearGradient id="SVGID_00000151545897584539568570000010333589641056036003_" gradientUnits="userSpaceOnUse" x1="357.8" y1="124.2784" x2="268.3818" y2="164.542">
						<stop  offset="0" style="stop-color:#B5B5B5"/>
						<stop  offset="0.1507" style="stop-color:#B5B5B5"/>
						<stop  offset="0.3873" style="stop-color:#DADADA"/>
						<stop  offset="0.6129" style="stop-color:#F9F9F9"/>
						<stop  offset="0.7204" style="stop-color:#FFFFFF"/>
						<stop  offset="0.8387" style="stop-color:#F9F9F9"/>
						<stop  offset="1" style="stop-color:#B5B5B5"/>
					</linearGradient>
					<path style="fill:url(#SVGID_00000151545897584539568570000010333589641056036003_);" d="M334.4,133.7c0.2,0.8-0.1,1.6-0.4,2.4
						c0,0.1-0.2,0.2-0.4,0.2c-0.1,0-0.2-0.2-0.2-0.3c0-0.5,0-0.9,0-1.4c0-0.1,0-0.1,0.1-0.2C333.8,134.2,334.1,133.9,334.4,133.7z"
						/>
					
						<linearGradient id="SVGID_00000005958418133831202640000013181483250145259150_" gradientUnits="userSpaceOnUse" x1="356.2319" y1="120.7945" x2="266.8128" y2="161.0585">
						<stop  offset="0" style="stop-color:#B5B5B5"/>
						<stop  offset="0.1507" style="stop-color:#B5B5B5"/>
						<stop  offset="0.3873" style="stop-color:#DADADA"/>
						<stop  offset="0.6129" style="stop-color:#F9F9F9"/>
						<stop  offset="0.7204" style="stop-color:#FFFFFF"/>
						<stop  offset="0.8387" style="stop-color:#F9F9F9"/>
						<stop  offset="1" style="stop-color:#B5B5B5"/>
					</linearGradient>
					<path style="fill:url(#SVGID_00000005958418133831202640000013181483250145259150_);" d="M350.9,123c-0.3,0.1-0.6,0.1-0.8,0.2
						c-0.1,0.4,0,0.8-0.2,1.1c-0.1,0.2-0.5,0.4-0.8,0.5c-0.3,0.1-0.6,0.2-0.9,0.4c0-0.1-0.2-0.4-0.1-0.4c0.2-0.2,0.4-0.3,0.6-0.4
						c0.8-0.1,1.1-0.4,1.2-1.3c0-0.2,0.3-0.4,0.4-0.5c0.2-0.1,0.4,0.1,0.6,0.2C350.9,122.9,350.9,122.9,350.9,123z"/>
					
						<linearGradient id="SVGID_00000170974630720823003570000003857972260752920209_" gradientUnits="userSpaceOnUse" x1="357.9916" y1="124.7016" x2="268.5699" y2="164.9668">
						<stop  offset="0" style="stop-color:#B5B5B5"/>
						<stop  offset="0.1507" style="stop-color:#B5B5B5"/>
						<stop  offset="0.3873" style="stop-color:#DADADA"/>
						<stop  offset="0.6129" style="stop-color:#F9F9F9"/>
						<stop  offset="0.7204" style="stop-color:#FFFFFF"/>
						<stop  offset="0.8387" style="stop-color:#F9F9F9"/>
						<stop  offset="1" style="stop-color:#B5B5B5"/>
					</linearGradient>
					<path style="fill:url(#SVGID_00000170974630720823003570000003857972260752920209_);" d="M343.9,132.6
						c-0.6-0.8-1.2-1.6-1.7-2.3c0,0,0.1-0.1,0.1-0.1c0.3,0.3,0.7,0.7,1,1C343.9,131.5,344.2,132,343.9,132.6L343.9,132.6z"/>
					
						<linearGradient id="SVGID_00000066490217736298647050000018379765172216379274_" gradientUnits="userSpaceOnUse" x1="351.4565" y1="110.1891" x2="262.0363" y2="150.4536">
						<stop  offset="0" style="stop-color:#B5B5B5"/>
						<stop  offset="0.1507" style="stop-color:#B5B5B5"/>
						<stop  offset="0.3873" style="stop-color:#DADADA"/>
						<stop  offset="0.6129" style="stop-color:#F9F9F9"/>
						<stop  offset="0.7204" style="stop-color:#FFFFFF"/>
						<stop  offset="0.8387" style="stop-color:#F9F9F9"/>
						<stop  offset="1" style="stop-color:#B5B5B5"/>
					</linearGradient>
					<path style="fill:url(#SVGID_00000066490217736298647050000018379765172216379274_);" d="M335.7,117.8c-0.4-0.1-0.7-0.2-1-0.3
						c0.8-1,1.9-0.9,2.9-1.1c0,0.3-0.2,0.5-0.6,0.4c-0.5-0.2-1,0.1-1.4,0.3C335.6,117.4,335.7,117.5,335.7,117.8z"/>
					
						<linearGradient id="SVGID_00000026163917106569853740000005857919540969768602_" gradientUnits="userSpaceOnUse" x1="346.94" y1="100.1596" x2="257.5208" y2="140.4237">
						<stop  offset="0" style="stop-color:#B5B5B5"/>
						<stop  offset="0.1507" style="stop-color:#B5B5B5"/>
						<stop  offset="0.3873" style="stop-color:#DADADA"/>
						<stop  offset="0.6129" style="stop-color:#F9F9F9"/>
						<stop  offset="0.7204" style="stop-color:#FFFFFF"/>
						<stop  offset="0.8387" style="stop-color:#F9F9F9"/>
						<stop  offset="1" style="stop-color:#B5B5B5"/>
					</linearGradient>
					<path style="fill:url(#SVGID_00000026163917106569853740000005857919540969768602_);" d="M309.4,116.1c0.4,0.2,0.8,0.4,1.2,0.5
						c0.3,0.1,0.6,0,0.8,0.1c0.3,0,0.6,0,0.8,0.1C311.3,117.1,309.8,116.8,309.4,116.1z"/>
					
						<linearGradient id="SVGID_00000139984030609056304330000000226702478299643537_" gradientUnits="userSpaceOnUse" x1="363.1436" y1="136.1438" x2="273.7227" y2="176.4087">
						<stop  offset="0" style="stop-color:#B5B5B5"/>
						<stop  offset="0.1507" style="stop-color:#B5B5B5"/>
						<stop  offset="0.3873" style="stop-color:#DADADA"/>
						<stop  offset="0.6129" style="stop-color:#F9F9F9"/>
						<stop  offset="0.7204" style="stop-color:#FFFFFF"/>
						<stop  offset="0.8387" style="stop-color:#F9F9F9"/>
						<stop  offset="1" style="stop-color:#B5B5B5"/>
					</linearGradient>
					<path style="fill:url(#SVGID_00000139984030609056304330000000226702478299643537_);" d="M355.7,139.1c0,0.5-0.6,1.2-0.8,1.2
						c-0.1,0-0.2,0-0.3-0.1c-0.1,0-0.1-0.2,0-0.3C354.8,139.7,355.2,139.4,355.7,139.1z"/>
					
						<linearGradient id="SVGID_00000132090315830748538380000017566982860272163201_" gradientUnits="userSpaceOnUse" x1="349.7439" y1="106.3909" x2="260.33" y2="146.6526">
						<stop  offset="0" style="stop-color:#B5B5B5"/>
						<stop  offset="0.1507" style="stop-color:#B5B5B5"/>
						<stop  offset="0.3873" style="stop-color:#DADADA"/>
						<stop  offset="0.6129" style="stop-color:#F9F9F9"/>
						<stop  offset="0.7204" style="stop-color:#FFFFFF"/>
						<stop  offset="0.8387" style="stop-color:#F9F9F9"/>
						<stop  offset="1" style="stop-color:#B5B5B5"/>
					</linearGradient>
					<path style="fill:url(#SVGID_00000132090315830748538380000017566982860272163201_);" d="M321.7,118.5c0.4,0,0.8,0,1.2,0
						c0.1,0,0.2,0.1,0.3,0.1c-0.1,0.1-0.1,0.2-0.2,0.3C322.4,119.2,321.9,119.1,321.7,118.5z"/>
					
						<linearGradient id="SVGID_00000052073109999047926460000001718290200766053009_" gradientUnits="userSpaceOnUse" x1="357.5737" y1="123.7756" x2="268.1569" y2="164.0386">
						<stop  offset="0" style="stop-color:#B5B5B5"/>
						<stop  offset="0.1507" style="stop-color:#B5B5B5"/>
						<stop  offset="0.3873" style="stop-color:#DADADA"/>
						<stop  offset="0.6129" style="stop-color:#F9F9F9"/>
						<stop  offset="0.7204" style="stop-color:#FFFFFF"/>
						<stop  offset="0.8387" style="stop-color:#F9F9F9"/>
						<stop  offset="1" style="stop-color:#B5B5B5"/>
					</linearGradient>
					<path style="fill:url(#SVGID_00000052073109999047926460000001718290200766053009_);" d="M342.8,129.3c0.5,0.5,0.9,1.1,0.9,1.8
						c-0.1-0.1-0.3-0.3-0.4-0.4c-0.2-0.3-0.4-0.7-0.5-1.1C342.7,129.6,342.8,129.4,342.8,129.3C342.8,129.3,342.8,129.3,342.8,129.3
						z"/>
					
						<linearGradient id="SVGID_00000004532107074436545080000004636122374366459804_" gradientUnits="userSpaceOnUse" x1="351.1186" y1="109.4413" x2="261.7019" y2="149.7043">
						<stop  offset="0" style="stop-color:#B5B5B5"/>
						<stop  offset="0.1507" style="stop-color:#B5B5B5"/>
						<stop  offset="0.3873" style="stop-color:#DADADA"/>
						<stop  offset="0.6129" style="stop-color:#F9F9F9"/>
						<stop  offset="0.7204" style="stop-color:#FFFFFF"/>
						<stop  offset="0.8387" style="stop-color:#F9F9F9"/>
						<stop  offset="1" style="stop-color:#B5B5B5"/>
					</linearGradient>
					<path style="fill:url(#SVGID_00000004532107074436545080000004636122374366459804_);" d="M325.9,120.1c0.2,0.4,0.3,0.8,0.5,1.1
						c0,0.1-0.1,0.2-0.2,0.2c-0.2,0-0.3-0.1-0.5-0.1c0,0,0-0.2,0-0.2c0.2-0.1,0.2-0.2,0-0.4c-0.1-0.1,0-0.4,0-0.7
						C325.8,120.1,325.8,120.1,325.9,120.1z"/>
					
						<linearGradient id="SVGID_00000121276954749662992610000007704195088635514287_" gradientUnits="userSpaceOnUse" x1="362.863" y1="135.5209" x2="273.4438" y2="175.785">
						<stop  offset="0" style="stop-color:#B5B5B5"/>
						<stop  offset="0.1507" style="stop-color:#B5B5B5"/>
						<stop  offset="0.3873" style="stop-color:#DADADA"/>
						<stop  offset="0.6129" style="stop-color:#F9F9F9"/>
						<stop  offset="0.7204" style="stop-color:#FFFFFF"/>
						<stop  offset="0.8387" style="stop-color:#F9F9F9"/>
						<stop  offset="1" style="stop-color:#B5B5B5"/>
					</linearGradient>
					<path style="fill:url(#SVGID_00000121276954749662992610000007704195088635514287_);" d="M355.7,139c0-0.3,0-0.6-0.1-0.9
						c0.2,0.2,0.4,0.4,0.7,0.6c-0.1,0.1-0.2,0.4-0.4,0.6C355.8,139.2,355.7,139,355.7,139z"/>
					
						<linearGradient id="SVGID_00000125596299957942645110000000056686984884768391_" gradientUnits="userSpaceOnUse" x1="357.4457" y1="123.4908" x2="268.0285" y2="163.754">
						<stop  offset="0" style="stop-color:#B5B5B5"/>
						<stop  offset="0.1507" style="stop-color:#B5B5B5"/>
						<stop  offset="0.3873" style="stop-color:#DADADA"/>
						<stop  offset="0.6129" style="stop-color:#F9F9F9"/>
						<stop  offset="0.7204" style="stop-color:#FFFFFF"/>
						<stop  offset="0.8387" style="stop-color:#F9F9F9"/>
						<stop  offset="1" style="stop-color:#B5B5B5"/>
					</linearGradient>
					<path style="fill:url(#SVGID_00000125596299957942645110000000056686984884768391_);" d="M346.7,128.4c0.1,0,0.3,0.1,0.4,0.2
						c-0.2,0.1-0.3,0.2-0.4,0.2c-0.2-0.2-0.3-0.4-0.5-0.6c0.3-0.1,0.5-0.2,0.7-0.3c0,0,0-0.1,0-0.1
						C346.8,127.9,346.8,128.1,346.7,128.4z"/>
					
						<linearGradient id="SVGID_00000036235109874872996220000010093749366994201023_" gradientUnits="userSpaceOnUse" x1="358.8068" y1="126.5094" x2="269.3778" y2="166.7778">
						<stop  offset="0" style="stop-color:#B5B5B5"/>
						<stop  offset="0.1507" style="stop-color:#B5B5B5"/>
						<stop  offset="0.3873" style="stop-color:#DADADA"/>
						<stop  offset="0.6129" style="stop-color:#F9F9F9"/>
						<stop  offset="0.7204" style="stop-color:#FFFFFF"/>
						<stop  offset="0.8387" style="stop-color:#F9F9F9"/>
						<stop  offset="1" style="stop-color:#B5B5B5"/>
					</linearGradient>
					<path style="fill:url(#SVGID_00000036235109874872996220000010093749366994201023_);" d="M346.6,131.9c-0.1,0-0.2,0.1-0.3,0.2
						c-0.1-0.6,0-0.7,0.5-0.6c0,0.3,0.1,0.6,0.1,1C346.8,132.2,346.7,132.1,346.6,131.9z"/>
					
						<linearGradient id="SVGID_00000166665268931332262360000007381911705975892138_" gradientUnits="userSpaceOnUse" x1="358.1242" y1="124.9978" x2="268.7076" y2="165.2607">
						<stop  offset="0" style="stop-color:#B5B5B5"/>
						<stop  offset="0.1507" style="stop-color:#B5B5B5"/>
						<stop  offset="0.3873" style="stop-color:#DADADA"/>
						<stop  offset="0.6129" style="stop-color:#F9F9F9"/>
						<stop  offset="0.7204" style="stop-color:#FFFFFF"/>
						<stop  offset="0.8387" style="stop-color:#F9F9F9"/>
						<stop  offset="1" style="stop-color:#B5B5B5"/>
					</linearGradient>
					<path style="fill:url(#SVGID_00000166665268931332262360000007381911705975892138_);" d="M347.5,129.5c0,0.3-0.1,0.5-0.1,0.8
						c-0.3-0.2-0.5-0.3-0.8-0.4C346.9,129.7,347.1,129.6,347.5,129.5z"/>
					
						<linearGradient id="SVGID_00000159442654473641655310000003407518111641929125_" gradientUnits="userSpaceOnUse" x1="346.9508" y1="100.1887" x2="257.5358" y2="140.4509">
						<stop  offset="0" style="stop-color:#B5B5B5"/>
						<stop  offset="0.1507" style="stop-color:#B5B5B5"/>
						<stop  offset="0.3873" style="stop-color:#DADADA"/>
						<stop  offset="0.6129" style="stop-color:#F9F9F9"/>
						<stop  offset="0.7204" style="stop-color:#FFFFFF"/>
						<stop  offset="0.8387" style="stop-color:#F9F9F9"/>
						<stop  offset="1" style="stop-color:#B5B5B5"/>
					</linearGradient>
					<path style="fill:url(#SVGID_00000159442654473641655310000003407518111641929125_);" d="M308.4,117.2c0.3-0.1,0.5-0.1,0.7-0.1
						c0.1,0,0.2,0.1,0.3,0.2c0,0.1,0,0.2-0.1,0.3c-0.1,0.1-0.3,0.1-0.4,0C308.8,117.5,308.7,117.4,308.4,117.2z"/>
					
						<linearGradient id="SVGID_00000013901825143062649940000008106189812275569539_" gradientUnits="userSpaceOnUse" x1="358.7932" y1="126.4821" x2="269.373" y2="166.7466">
						<stop  offset="0" style="stop-color:#B5B5B5"/>
						<stop  offset="0.1507" style="stop-color:#B5B5B5"/>
						<stop  offset="0.3873" style="stop-color:#DADADA"/>
						<stop  offset="0.6129" style="stop-color:#F9F9F9"/>
						<stop  offset="0.7204" style="stop-color:#FFFFFF"/>
						<stop  offset="0.8387" style="stop-color:#F9F9F9"/>
						<stop  offset="1" style="stop-color:#B5B5B5"/>
					</linearGradient>
					<path style="fill:url(#SVGID_00000013901825143062649940000008106189812275569539_);" d="M343.9,132.6c0.6-0.1,1.1,0,1.6,0.2
						c0,0.1,0,0.1,0,0.2C345,132.9,344.4,132.8,343.9,132.6C343.9,132.6,343.9,132.6,343.9,132.6z"/>
					
						<linearGradient id="SVGID_00000093875009722010681670000013892847821834076332_" gradientUnits="userSpaceOnUse" x1="351.2397" y1="109.7146" x2="261.8255" y2="149.9764">
						<stop  offset="0" style="stop-color:#B5B5B5"/>
						<stop  offset="0.1507" style="stop-color:#B5B5B5"/>
						<stop  offset="0.3873" style="stop-color:#DADADA"/>
						<stop  offset="0.6129" style="stop-color:#F9F9F9"/>
						<stop  offset="0.7204" style="stop-color:#FFFFFF"/>
						<stop  offset="0.8387" style="stop-color:#F9F9F9"/>
						<stop  offset="1" style="stop-color:#B5B5B5"/>
					</linearGradient>
					<path style="fill:url(#SVGID_00000093875009722010681670000013892847821834076332_);" d="M313.2,127.4
						c-0.6-0.2-1.1-0.3-1.6-0.4C312,126.7,312.1,126.7,313.2,127.4z"/>
					
						<linearGradient id="SVGID_00000049917197952862899770000000188619935115012283_" gradientUnits="userSpaceOnUse" x1="346.4551" y1="99.0816" x2="257.0346" y2="139.3463">
						<stop  offset="0" style="stop-color:#B5B5B5"/>
						<stop  offset="0.1507" style="stop-color:#B5B5B5"/>
						<stop  offset="0.3873" style="stop-color:#DADADA"/>
						<stop  offset="0.6129" style="stop-color:#F9F9F9"/>
						<stop  offset="0.7204" style="stop-color:#FFFFFF"/>
						<stop  offset="0.8387" style="stop-color:#F9F9F9"/>
						<stop  offset="1" style="stop-color:#B5B5B5"/>
					</linearGradient>
					<path style="fill:url(#SVGID_00000049917197952862899770000000188619935115012283_);" d="M309,116.3c-0.3,0-0.7-0.1-1.1-0.2
						c0.1-0.1,0.1-0.2,0.2-0.2C308.5,115.9,308.8,115.8,309,116.3z"/>
					
						<linearGradient id="SVGID_00000116955274387831023060000015704491128193626274_" gradientUnits="userSpaceOnUse" x1="351.6775" y1="110.68" x2="262.2573" y2="150.9445">
						<stop  offset="0" style="stop-color:#B5B5B5"/>
						<stop  offset="0.1507" style="stop-color:#B5B5B5"/>
						<stop  offset="0.3873" style="stop-color:#DADADA"/>
						<stop  offset="0.6129" style="stop-color:#F9F9F9"/>
						<stop  offset="0.7204" style="stop-color:#FFFFFF"/>
						<stop  offset="0.8387" style="stop-color:#F9F9F9"/>
						<stop  offset="1" style="stop-color:#B5B5B5"/>
					</linearGradient>
					<path style="fill:url(#SVGID_00000116955274387831023060000015704491128193626274_);" d="M314.2,127.9c-0.3,0-0.6-0.1-1-0.1
						C313.9,127.3,314,127.3,314.2,127.9z"/>
					
						<linearGradient id="SVGID_00000098909987222543990120000009285684797886250658_" gradientUnits="userSpaceOnUse" x1="346.6774" y1="99.5721" x2="257.2541" y2="139.838">
						<stop  offset="0" style="stop-color:#B5B5B5"/>
						<stop  offset="0.1507" style="stop-color:#B5B5B5"/>
						<stop  offset="0.3873" style="stop-color:#DADADA"/>
						<stop  offset="0.6129" style="stop-color:#F9F9F9"/>
						<stop  offset="0.7204" style="stop-color:#FFFFFF"/>
						<stop  offset="0.8387" style="stop-color:#F9F9F9"/>
						<stop  offset="1" style="stop-color:#B5B5B5"/>
					</linearGradient>
					<path style="fill:url(#SVGID_00000098909987222543990120000009285684797886250658_);" d="M308.1,116.9c0.1-0.4,0.2-0.4,1.1-0.1
						C308.9,116.8,308.5,116.8,308.1,116.9z"/>
					
						<linearGradient id="SVGID_00000090267191502049091760000011463274109201466032_" gradientUnits="userSpaceOnUse" x1="351.0873" y1="109.368" x2="261.6653" y2="149.6333">
						<stop  offset="0" style="stop-color:#B5B5B5"/>
						<stop  offset="0.1507" style="stop-color:#B5B5B5"/>
						<stop  offset="0.3873" style="stop-color:#DADADA"/>
						<stop  offset="0.6129" style="stop-color:#F9F9F9"/>
						<stop  offset="0.7204" style="stop-color:#FFFFFF"/>
						<stop  offset="0.8387" style="stop-color:#F9F9F9"/>
						<stop  offset="1" style="stop-color:#B5B5B5"/>
					</linearGradient>
					<path style="fill:url(#SVGID_00000090267191502049091760000011463274109201466032_);" d="M325.7,120.8
						c-0.3,0.3-0.5,0.4-0.7,0.6c0,0-0.1-0.1-0.1-0.1C325.1,121.1,325,120.6,325.7,120.8z"/>
				</g>
				<g style="opacity:0.53;clip-path:url(#SVGID_00000119816772891408735520000007007948684087188104_);">
					<g class="st44">
						<rect x="300.5" y="112.7" class="st45" width="54.9" height="0.6"/>
						<rect x="300.5" y="112.4" class="st46" width="54.9" height="0.6"/>
					</g>
					<g class="st44">
						<rect x="300.5" y="116.1" class="st45" width="54.9" height="0.6"/>
						<rect x="300.5" y="115.8" class="st46" width="54.9" height="0.6"/>
					</g>
					<g class="st44">
						<rect x="300.5" y="119.5" class="st45" width="54.9" height="0.6"/>
						<rect x="300.5" y="119.1" class="st46" width="54.9" height="0.6"/>
					</g>
					<g class="st44">
						<rect x="300.5" y="122.8" class="st45" width="54.9" height="0.6"/>
						<rect x="300.5" y="122.5" class="st46" width="54.9" height="0.6"/>
					</g>
					<g class="st44">
						<rect x="300.5" y="126.2" class="st45" width="54.9" height="0.6"/>
						<rect x="300.5" y="125.9" class="st46" width="54.9" height="0.6"/>
					</g>
					<g class="st44">
						<rect x="300.5" y="129.6" class="st45" width="54.9" height="0.6"/>
						<rect x="300.5" y="129.3" class="st46" width="54.9" height="0.6"/>
					</g>
					<g class="st44">
						<rect x="300.5" y="132.9" class="st45" width="54.9" height="0.6"/>
						<rect x="300.5" y="132.6" class="st46" width="54.9" height="0.6"/>
					</g>
					<g class="st44">
						<rect x="300.5" y="136.3" class="st45" width="54.9" height="0.6"/>
						<rect x="300.5" y="136" class="st46" width="54.9" height="0.6"/>
					</g>
					<g class="st44">
						<rect x="300.5" y="139.7" class="st45" width="54.9" height="0.6"/>
						<rect x="300.5" y="139.4" class="st46" width="54.9" height="0.6"/>
					</g>
					<g class="st44">
						<rect x="300.5" y="143.1" class="st45" width="54.9" height="0.6"/>
						<rect x="300.5" y="142.7" class="st46" width="54.9" height="0.6"/>
					</g>
				</g>
			</g>
			<g style="clip-path:url(#SVGID_00000029017212300016846140000008021503704630613387_);">
				<g>
					<text transform="matrix(1 0 0 1 103.2162 74.6293)" class="st5 st47 st48">BANK NAME</text>
				</g>
				<g>
					<path class="st5" d="M88,64.7c-2.5,2.6-4,6.1-4,10h-4.3V61.7h0C82.8,61.7,85.7,62.8,88,64.7z"/>
					<path class="st5" d="M85.4,74.6h12.9V61.7l0,0C91.2,61.7,85.4,67.5,85.4,74.6L85.4,74.6z"/>
				</g>
			</g>
			<g style="clip-path:url(#SVGID_00000029017212300016846140000008021503704630613387_);">
				<g>
					<path class="st5" d="M141.7,138.4l-1.4-1.4c2.9-2.9,4.6-6.9,4.6-11c0-4.2-1.6-8.1-4.6-11l1.4-1.4c3.3,3.3,5.1,7.7,5.1,12.4
						C146.9,130.7,145,135.1,141.7,138.4z"/>
				</g>
				<g>
					<path class="st5" d="M137,133.7l-1.4-1.4c1.7-1.7,2.6-3.9,2.6-6.3c0-2.4-0.9-4.6-2.6-6.3l1.4-1.4c2.1,2.1,3.2,4.8,3.2,7.7
						C140.2,128.9,139.1,131.7,137,133.7z"/>
				</g>
				<g>
					<path class="st5" d="M133.1,129.8l-1.4-1.4c0.6-0.6,1-1.5,1-2.4c0-0.9-0.3-1.7-1-2.4l1.4-1.4c1,1,1.6,2.4,1.6,3.8
						C134.7,127.4,134.1,128.8,133.1,129.8z"/>
				</g>
			</g>
			<g style="clip-path:url(#SVGID_00000029017212300016846140000008021503704630613387_);">
				<text transform="matrix(1 0 0 1 300.8842 72.1598)" class="st49 st50 st51">BLACK EDITION</text>
			</g>
		</g>
	</g>
</g>
</svg>
