<?xml version="1.0" encoding="utf-8"?>
<!-- Generator: Adobe Illustrator 27.5.0, SVG Export Plug-In . SVG Version: 6.00 Build 0)  -->
<svg version="1.1" id="Layer_1" xmlns="http://www.w3.org/2000/svg" xmlns:xlink="http://www.w3.org/1999/xlink" x="0px" y="0px"
	 viewBox="0 0 3169.976 2000" style="enable-background:new 0 0 3169.976 2000;" xml:space="preserve">
<g>
	<rect x="0" y="0" style="fill:#FFFFFF;" width="3169.976" height="2000"/>
	<g>
		<linearGradient id="SVGID_1_" gradientUnits="userSpaceOnUse" x1="343.8081" y1="996.9195" x2="2894.9954" y2="996.9195">
			<stop  offset="0" style="stop-color:#BCE3F1"/>
			<stop  offset="1" style="stop-color:#D0F7FF"/>
		</linearGradient>
		<path style="fill:url(#SVGID_1_);" d="M686.869,1852.614c-150.447-130.502-347.913-404.561-342.97-761.096
			c6.372-459.539,253.478-994.373,1134.137-947.404c449.91,23.995,774.514,205.864,1108.248,506.688
			c502.362,452.823,280.406,1081.02,107.208,1201.812C2368.492,1852.614,686.869,1852.614,686.869,1852.614z"/>
		<g>
			<path style="fill:#184655;" d="M237.4,1846.453c-4.213,0-7.627,2.759-7.627,6.161c0,3.403,3.415,6.161,7.627,6.161h2694.866
				c4.37,0,7.917-2.714,7.938-6.071c0-0.041,0-0.083,0-0.124c0.02-3.379-3.539-6.127-7.936-6.127H237.4z"/>
		</g>
		<g>
			<g>
				<path style="fill:#F48C7F;" d="M736.303,723.072l7.266-32.573c0,0,23.781,14.871,37.654,36.113
					c13.872,21.244,20.479,77.891,24.442,80.014c3.963,2.124,47.856-64.513,55.53-75.018c9.494-12.992,13.04-27.904,18.984-39.233
					c5.946-11.329,26.878-15.187,34.805-13.769c7.928,1.415-10.888,34.552-10.888,34.552s-47.563,81.43-63.418,126.041
					c-15.855,44.608-65.399,65.852-73.328,59.479C759.424,892.304,736.303,723.072,736.303,723.072z"/>
				<path style="fill:#F7A491;" d="M880.707,698.611c0,0,1.979-8.574,7.318-10.328c5.341-1.754,14.634-0.196,15.227,0
					c0.594,0.194,10.876-5.263,10.876-5.263l-8.504,15.59c0,0-16.611,19.291-22.147,12.08
					C877.939,703.482,880.707,698.611,880.707,698.611z"/>
				<path style="fill:#F48C7F;" d="M917.095,683.737c0,0,5.998,30.073,4.482,36.374c-1.521,6.321-5.349,2.93-6.065,1.559
					c-2.949-5.652-5.01-24.942-5.01-24.942L917.095,683.737z"/>
				<path style="fill:#F48C7F;" d="M904.174,708.743c0,0,2.86,18.652,5.802,20.851c1.91,1.429,4.349,0.585,5.141-3.183
					c0.791-3.768-3.825-26.762-3.825-26.762L904.174,708.743z"/>
				<path style="fill:#184655;" d="M886.691,761.667l-9.954-4.781l42.283-85.479l0,0c5.498,2.64,7.783,9.174,5.103,14.591
					L886.691,761.667z"/>
				<path style="fill:#13375B;" d="M780.44,589.131c5.967-26.732,11.814-53.633-3.92-83c-12.731-23.765-34.739-37.44-60.214-40.418
					c-72.175-8.439-56.749,57.956-157.626,72.329c-31.345,4.465-76.31,0.718-102.48,16.08
					c-47.257,27.74-61.283,94.952-29.945,167.442c76.739,177.499,277.138,12.134,300.404-22.816
					C743.967,672.746,776.597,606.339,780.44,589.131z"/>
				<path style="fill:#F7A491;" d="M491.796,1710.345c0,0-5.14,51.419-18.351,60.861c-13.212,9.442-30.828,44.373-22.021,63.256
					c2.752,5.901,8.257,9.312,14.526,11.213c18.561,5.631,38.308-3.853,46.211-21.335c4.416-9.766,8.288-22.792,9.066-39.208
					c1.983-41.778,15.194-63.02,15.194-63.02L491.796,1710.345z"/>
				<path style="fill:#F7A491;" d="M694.821,1731.39c0,0,4.164,51.884,0.784,68.746c-1.81,9.03-11.89,27.617-7.266,36.113
					c4.624,8.497,9.909,10.622,9.909,10.622l119.844,1.898c6.529,0.104,2.216-4.027-3.048-7.833
					c-8.615-6.23-15.57-10.347-43.089-23.439c-1.796-0.855-8.332-4.941-10.688-6.356c-5.975-3.59-11.977-9.236-17.142-14.895
					c-8.607-9.421-9.357-55.113-9.357-55.113L694.821,1731.39z"/>
				<path style="fill:#3C8F7C;" d="M788.489,1041.711c0,0,15.094,84.242,5.185,139.472c-9.909,55.227-57.471,567.15-57.471,567.15
					l-52.852,2.932c0,0-11.078-213.841-9.098-243.578c1.983-29.74,17.668-79.505,17.668-79.505l-5.261-172.654l66.695-226.819
					L788.489,1041.711z"/>
				<path style="fill:#50BFA5;" d="M633.153,1023.995c0,0-41.615,61.6-51.525,112.58c-9.908,50.98,7.273,207.654-11.788,274.458
					c-10.317,36.164-49.425,92.012-55.37,138.744c-5.946,46.731-29.267,169.142-29.267,169.142l52.827,10.298l122.776-305.713
					l96.306-276.316l24.671-142.311L633.153,1023.995z"/>
				<path style="fill:#FAE0B2;" d="M666.842,673.508c0,0-31.521,8.997-53.32,32.362c-21.799,23.366,30.314,206.269,34.277,236.006
					c3.963,29.738-32.48,99.112-32.48,99.112s136.176,24.799,173.169,0.723c0,0,3.965-213.842,0-235.086
					c-3.961-21.242-36.993-107.63-44.92-116.126C735.641,682.002,666.842,673.508,666.842,673.508z"/>
				<path style="fill:#F7A491;" d="M615.307,718.581c3.513-10.466,18.652-19.182,28.921-14.807
					c14.07,5.994,30.397,21.047,39.886,40.54c15.855,32.571,71.346,144.449,88.521,148.698c17.177,4.25,87.2-116.126,87.2-116.126
					s-1.981-21.242,3.963-33.279c5.946-12.039,23.783-24.783,26.425-20.534c2.642,4.247-9.909,14.869-9.909,16.993
					c0,2.125,5.285,3.541,12.551-0.708c7.268-4.249,11.205-12.841,11.205-12.841s11.916,21.339-0.635,40.456
					c-12.551,19.12-17.836,26.908-17.836,26.908s-81.254,177.73-110.981,179.854C746.934,975.714,587.485,801.453,615.307,718.581z"
					/>
				<path style="fill:#F7A491;" d="M685.187,601.101c0,0-0.285,1.595-0.798,4.311c-2.456,13.028-11.917,56.244-18.308,68.125
					c-7.722,14.358,26.441,60.15,59.325,54.563c9.79-1.664-8.274-42.076-7.406-46.356c1.661-8.193,3.915-19.374,6.221-30.835
					c1.301-6.466,2.619-13.023,3.856-19.185c3.517-17.51,6.385-31.831,6.385-31.831L685.187,601.101z"/>
				<path style="fill:#F47458;" d="M684.389,605.411c0.512-2.716,0.798-4.311,0.798-4.311l49.276-1.208
					c0,0-2.868,14.321-6.385,31.831c-1.232,6.127-2.541,12.646-3.835,19.078c-7.607-1.102-15.556-4.74-23.527-11.601
					c-8.688-7.48-14.383-16.469-17.82-26.065C683.502,610.072,684.009,607.432,684.389,605.411z"/>
				<path style="fill:#F7A491;" d="M714.828,485.697c0,0-20.095,2.747-34.654,21.264c-14.559,18.517-30.25,75.782,5.917,106.914
					c36.164,31.134,71.898-4.107,77.195-41.474C768.584,535.037,767.513,484.348,714.828,485.697z"/>
				<path style="fill:#F7A491;" d="M774.86,559.633c-4.316,8.253-11.563,12.821-16.185,10.206
					c-4.621-2.616-4.868-11.425-0.55-19.678c4.316-8.252,11.563-12.822,16.184-10.207C778.929,542.57,779.177,551.38,774.86,559.633
					z"/>
				<path style="fill:#13375B;" d="M720.95,484.831c0,0-31.03,54.455-53.227,56.971c-22.197,2.516-25.112,31.451-25.112,31.451
					s7.937-66.674,29.911-79.532C694.497,480.864,720.95,484.831,720.95,484.831z"/>
				<path style="fill:#F7A491;" d="M674.982,554.777c1.806,9.671-1.825,18.539-8.108,19.809c-6.285,1.27-12.843-5.543-14.648-15.211
					c-1.806-9.671,1.825-18.54,8.11-19.809C666.619,538.296,673.177,545.107,674.982,554.777z"/>
				<path style="fill:#3C8F7C;" d="M515.761,1815.145c-28.791,5.16-47.949-11.402-57.917-23.801
					c-7.318,14.045-11.802,31.578-6.42,43.117c4.742,10.163,17.647,12.942,28.556,13.339c11.536,0.422,22.322-5.52,28.043-15.396
					C510.696,1827.791,513.451,1822.046,515.761,1815.145z"/>
				<path style="fill:#3C8F7C;" d="M761.251,1811.13c-31.696,7.997-55.125,2.56-68.231-2.636c-3.38,9.42-7.861,21.239-5.484,28.053
					c2.91,8.344,7.053,10.916,10.712,11.01c28.951,0.747,106.046,1.079,128.122,1.363c3.083,0.04,4.783-3.503,2.801-5.83
					C823.697,1836.659,763.612,1812.55,761.251,1811.13z"/>
			</g>
			<g>
				<path style="fill:#F48C7F;" d="M2315.736,1050.96c22.981-6.482,23.595-2.47,26.51-3.38c3.446-1.074,31.241-37.936,31.241-37.936
					s82.73-108.049,86.966-114.052l26.091-139.813l78.379-0.607c0,0-32.743,150.986-35.945,158.461
					c-3.202,7.475-134.308,139.446-145.416,151.457c0,0-7.179,19.505-12.129,31.571c-4.948,12.067-15.542,20.889-17.509,24.031
					c-0.289,0.464-7.524,10.504-20.145,20.282c-10.878,8.427-5.129-4.693-5.129-4.693s16.834-19.337,14.864-20.488
					c-1.521-0.887-10.001,10.25-21.922,19.704c-3.066,2.431-6.102,4.818-8.911,6.987c-7.373,5.697-13.62,2.668-7.029-4.558
					c2.328-2.552,6.313-6.69,9.634-9.217c3.59-2.73,5.84-6.428,8.44-9.196c5.164-5.496,9.008-9.433,8.631-9.536
					c-0.488-0.131-0.351-1.988-3.699,0.49c-4.024,2.976-10.913,11.241-17.236,15.147c-3.584,2.214-10.734,7.307-10.734,7.307
					s-12.527,5.629-13.193,5.01c-3.605-3.358,3.564-9.61,8.915-11.973c2.417-3.247,10.12-8.388,10.12-8.388
					s12.77-13.952,10.53-15.897c-0.951-0.829-9.961,6.735-20.157,12.713c-9.47,5.553-20.147,9.598-21.777,7.871
					c-2.764-2.929,6.946-10.228,6.946-10.228s7.128-4.738,9.349-6.496c2.604-2.06,9.845-8.849,9.845-8.849
					s23.929-24.851,21.659-26.536c-2.266-1.685-9.688-3.96-11.786-2.962c-2.098,0.996-4.73,4.842-6.828,5.839
					c-2.097,0.996-5.918,0.502-7.664-1.982c-1.746-2.481,6.051-11.188,6.051-11.188S2309.103,1052.832,2315.736,1050.96z"/>
				<path style="fill:#F7A491;" d="M2443.778,1756.981c0,0-0.719,48.238-0.702,48.338c1.024,6.126,8.569,21.256,8.569,26.823
					c0,20.915-95.047-17.755-73.744-27.024c1.927-0.839,12.029-7.184,12.664-14.303c0.976-10.97,3.455-33.158,3.455-33.158
					L2443.778,1756.981z"/>
				<path style="fill:#B75742;" d="M2378.135,1804.919c0,0,22.314,6.397,33.744,7.997c11.428,1.6,26.496-11.869,34.58-8.231
					c8.897,4.005,7.999,43.434,7.999,43.434s-114.104,1.631-152.767-0.564C2287.738,1846.763,2332.514,1819.821,2378.135,1804.919z"
					/>
				<path style="fill:#F7A491;" d="M2655.273,1756.981c0,0,2.789,48.238,2.806,48.338c1.024,6.126,5.062,21.256,5.062,26.823
					c0,20.915-95.047-17.755-73.744-27.024c1.927-0.839,15.023-11.923,15.656-19.04c0.979-10.97,0.46-28.421,0.46-28.421
					L2655.273,1756.981z"/>
				<path style="fill:#B75742;" d="M2589.631,1804.919c0,0,22.313,6.397,33.742,7.997c11.43,1.6,26.498-11.869,34.582-8.231
					c8.897,4.005,8.665,42.87,8.665,42.87s-127.442,1.363-158.519,0C2494.131,1846.943,2544.011,1819.821,2589.631,1804.919z"/>
				<path style="fill:#355389;" d="M2504.653,1060.642l-40.183,16.973l-84.525,395.232l3.424,296.292l67.76,1.543
					c0,0,31.516-259.179,31.516-279.265c0-20.087,145.983-351.498,145.983-351.498L2504.653,1060.642z"/>
				<path style="fill:#466EB6;" d="M2535.669,1082.391c0,0,29.604,304.514,29.604,355.843c0,51.331,24.001,338.618,24.001,338.618
					l67.923-0.384c0,0,4.901-87.568,12.182-216.394c1.14-20.176-1.469-60.885,0-81.773c10.567-150.23,31.463-291.655,21.483-347.713
					c-1.605-9.025-4.626-32.62-10.506-38.574C2635.878,1046.96,2535.669,1082.391,2535.669,1082.391z"/>
				<path style="fill:#3C8F7C;" d="M2452.817,842.068l82.19-5.389c0,0,4.055-71.931,4.055-106.243
					c0-41.628,12.957-103.003,7.892-101.851c-14.217,3.24-38.765,16.054-50.163,31.599
					C2457.346,713.969,2452.817,842.068,2452.817,842.068z"/>
				<path style="fill:#50BFA5;" d="M2647.54,626.994c0,0,46.868,6.38,59.202,15.249c13.895,9.991,29.311,32.342,29.311,32.342
					s-57.542,266.324-57.644,311.138c-0.079,34.672,12.459,119.802,12.459,119.802s-173.891,10.747-239.75-14.706
					c0,0,20.797-101.251,20.797-127.835c0-26.586,24.875-268.343,30.537-285.227c5.138-15.319,14.525-42.846,46.297-49.632
					C2580.525,621.338,2647.54,626.994,2647.54,626.994z"/>
				<path style="fill:#F7A491;" d="M2634.741,555.291l11.601,74.37c0,0-42.366,88.549-67.658,80.87
					c-21.221-6.444-8.166-84.795-8.166-84.795s11.566-42.076,8.098-63.132C2575.148,541.548,2634.741,555.291,2634.741,555.291z"/>
				<path style="fill:#F47458;" d="M2578.617,562.603c-3.469-21.055,56.125-7.312,56.125-7.312l0.962,6.168
					c-1.744,4.126-3.875,7.657-6.463,10.366c-13.31,13.933-34.118,22.301-52.106,22.934
					C2578.933,583.407,2580.041,571.238,2578.617,562.603z"/>
				<g>
					<path style="fill:#F7A491;" d="M2644.519,450.078c1.685-0.595,13.5,84.702-8.923,108.172
						c-22.424,23.468-66.113,31.149-81.785,12.665c-17.334-20.444-16.464-112.118,18.4-136.262
						C2607.076,410.51,2644.519,450.078,2644.519,450.078z"/>
					<path style="fill:#13375B;" d="M2585.483,389.025c26.949,5.345,44.404,21.362,50.817,28.189
						c12.234,1.405,28.866,7.982,46.041,35.637c21.114,34.006,5.522,71.681-19.06,90.165c-24.581,18.485-24.254,39.74-24.254,39.74
						l-3.87-10.947c-2.868-8.367-4.04-17.239-3.081-26.014c0.576-5.265,1.735-10.959,3.977-15.64
						c5.913-12.345-12.702-20.546-17.919-30.817c-4.018-7.907-4.214-25.999-10.544-39.072l-7.562-9.979
						c0,0-17.443-13.202-34.509-9.477C2548.454,444.536,2550.908,382.169,2585.483,389.025z"/>
					<path style="fill:#F7A491;" d="M2619.281,514.518c-0.178,10.406,4.686,18.926,10.864,19.029
						c6.178,0.102,11.329-8.251,11.508-18.658c0.178-10.406-4.686-18.926-10.862-19.029
						C2624.611,495.758,2619.459,504.111,2619.281,514.518z"/>
				</g>
				<path style="fill:#13375B;" d="M2528.019,897.897l-1.123,6.349c-0.578,3.268-3.75,5.458-7.088,4.892l-134.408-22.792
					c-3.335-0.566-5.572-3.673-4.996-6.939l1.125-6.352c0.578-3.266,3.752-5.456,7.087-4.891l134.407,22.792
					C2526.36,891.523,2528.599,894.629,2528.019,897.897z"/>
				<path style="fill:#F7A491;" d="M2718.559,661.289c-15.769-0.448-29.717,101.394-19.72,111.44
					c9.996,10.048,11.902,135.486,11.902,135.486l-148.764-3.622l-0.019,0.048c-2.901-1.903-34.068-22.398-38.524-26.876
					c-4.676-4.7-27.385-2.351-33.398,4.11c-6.01,6.463,13.36,1.175,18.702,4.698c5.346,3.526-4.007,12.336-4.007,12.336
					s-37.701,5.356-45.048-2.28c-7.349-7.636-26.984-20.562-29.655-12.926c-1.379,3.941,8.749,15.879,14.45,20.889
					c-7.119-5.218-15.64-10.759-18.564-9.795c-5.344,1.763-3.117,8.418-0.223,10.378c2.894,1.957,32.824,24.33,37.498,25.896
					c4.567,1.531,74.18,3.214,86.207,5.823c0,0,196.178,43.74,207.333,41.01c9.783-2.396,19.569-63.875,19.569-110.971
					C2776.3,819.839,2767.837,662.685,2718.559,661.289z"/>
				<path style="fill:#50BFA5;" d="M2698.104,638.054c0,0,27.442,6.186,55.792,37.379c25.78,28.362,42.021,187.205,42.021,187.205
					l-89.016,14.092l-7.108-76.837l-23.785-35.145L2698.104,638.054z"/>
			</g>
			<g>
				<g>
					<path style="fill:#FFFFFF;" d="M1770.299,307.835v120.628c0,11.398-9.239,20.639-20.639,20.639h-569.945l-108.132,60.118
						l14.048-60.118l0,0c-11.398,0-20.639-9.24-20.639-20.639V307.835c0-11.397,9.241-20.638,20.639-20.638h664.029
						C1761.06,287.196,1770.299,296.438,1770.299,307.835z"/>
					<path style="fill:#F47458;" d="M1728.482,348.5h-615.359c-6.411,0-11.608-5.196-11.608-11.608l0,0
						c0-6.411,5.196-11.607,11.608-11.607h615.359c6.411,0,11.608,5.196,11.608,11.607l0,0
						C1740.089,343.303,1734.893,348.5,1728.482,348.5z"/>
					<path style="fill:#F47458;" d="M1336.937,383.325h-223.814c-6.411,0-11.608-5.198-11.608-11.608l0,0
						c0-6.411,5.196-11.609,11.608-11.609h223.814c6.411,0,11.607,5.197,11.607,11.609l0,0
						C1348.544,378.127,1343.348,383.325,1336.937,383.325z"/>
				</g>
				<g>
					
						<linearGradient id="SVGID_00000086650358911992715800000004322490932744611471_" gradientUnits="userSpaceOnUse" x1="1437.5365" y1="1371.7377" x2="2153.1328" y2="1371.7377">
						<stop  offset="0" style="stop-color:#1F90F2"/>
						<stop  offset="1" style="stop-color:#A3D6FF"/>
					</linearGradient>
					<path style="fill:url(#SVGID_00000086650358911992715800000004322490932744611471_);" d="M1437.536,1253.432v176.494
						c0,11.398,9.239,20.639,20.639,20.639h580.234l108.132,60.118l-14.048-60.118l0,0c11.398,0,20.639-9.24,20.639-20.639v-176.494
						c0-11.397-9.241-20.638-20.639-20.638h-674.319C1446.776,1232.793,1437.536,1242.035,1437.536,1253.432z"/>
					<path style="fill:#FFFFFF;" d="M1489.644,1294.097h615.359c6.411,0,11.608-5.196,11.608-11.608l0,0
						c0-6.411-5.196-11.607-11.608-11.607h-615.359c-6.411,0-11.608,5.196-11.608,11.607l0,0
						C1478.036,1288.901,1483.232,1294.097,1489.644,1294.097z"/>
					<path style="fill:#FFFFFF;" d="M1489.644,1328.922h615.359c6.411,0,11.608-5.198,11.608-11.608l0,0
						c0-6.411-5.196-11.609-11.608-11.609h-615.359c-6.411,0-11.608,5.198-11.608,11.609l0,0
						C1478.036,1323.724,1483.232,1328.922,1489.644,1328.922z"/>
					<path style="fill:#6783DB;" d="M1489.646,1366.801h527.379c6.411,0,11.607-5.198,11.607-11.609l0,0
						c0-6.41-5.196-11.608-11.607-11.608h-527.379c-6.411,0-11.61,5.197-11.61,11.608l0,0
						C1478.036,1361.604,1483.235,1366.801,1489.646,1366.801z"/>
					<path style="fill:#FFFFFF;" d="M1489.644,1366.801h615.359c6.411,0,11.608-5.198,11.608-11.608l0,0
						c0-6.411-5.196-11.609-11.608-11.609h-615.359c-6.411,0-11.608,5.198-11.608,11.609l0,0
						C1478.036,1361.604,1483.232,1366.801,1489.644,1366.801z"/>
					<path style="fill:#FFFFFF;" d="M1489.646,1404.681h527.379c6.411,0,11.607-5.198,11.607-11.609l0,0
						c0-6.41-5.196-11.607-11.607-11.607h-527.379c-6.411,0-11.61,5.197-11.61,11.607l0,0
						C1478.036,1399.483,1483.235,1404.681,1489.646,1404.681z"/>
				</g>
				<g>
					<path style="fill:#FFFFFF;" d="M1770.299,929.88v161.769c0,11.398-9.239,20.639-20.639,20.639h-569.945l-108.132,60.118
						l14.048-60.118l0,0c-11.398,0-20.639-9.24-20.639-20.639V929.88c0-11.397,9.241-20.638,20.639-20.638h664.029
						C1761.06,909.242,1770.299,918.483,1770.299,929.88z"/>
					<path style="fill:#F47458;" d="M1728.482,970.545h-615.359c-6.411,0-11.608-5.196-11.608-11.607l0,0
						c0-6.411,5.196-11.608,11.608-11.608h615.359c6.411,0,11.608,5.196,11.608,11.608l0,0
						C1740.089,965.349,1734.893,970.545,1728.482,970.545z"/>
					<path style="fill:#F47458;" d="M1728.482,1005.37h-615.359c-6.411,0-11.608-5.198-11.608-11.608l0,0
						c0-6.411,5.196-11.609,11.608-11.609h615.359c6.411,0,11.608,5.198,11.608,11.609l0,0
						C1740.089,1000.173,1734.893,1005.37,1728.482,1005.37z"/>
					<path style="fill:#F47458;" d="M1470.675,1043.25h-354.802c-6.411,0-11.608-5.198-11.608-11.609l0,0
						c0-6.41,5.196-11.608,11.608-11.608h354.802c6.411,0,11.61,5.197,11.61,11.608l0,0
						C1482.285,1038.052,1477.087,1043.25,1470.675,1043.25z"/>
				</g>
				<g>
					
						<linearGradient id="SVGID_00000053530153449136996260000008568736919862278063_" gradientUnits="userSpaceOnUse" x1="1437.5365" y1="687.9323" x2="2153.1328" y2="687.9323">
						<stop  offset="0" style="stop-color:#1F90F2"/>
						<stop  offset="1" style="stop-color:#A3D6FF"/>
					</linearGradient>
					<path style="fill:url(#SVGID_00000053530153449136996260000008568736919862278063_);" d="M1437.536,576.989v161.769
						c0,11.398,9.239,20.639,20.639,20.639h580.234l108.132,60.118l-14.048-60.118l0,0c11.398,0,20.639-9.24,20.639-20.639V576.989
						c0-11.397-9.241-20.638-20.639-20.638h-674.319C1446.776,556.35,1437.536,565.592,1437.536,576.989z"/>
					<path style="fill:#FFFFFF;" d="M1489.644,617.654h615.359c6.411,0,11.608-5.196,11.608-11.607l0,0
						c0-6.411-5.196-11.607-11.608-11.607h-615.359c-6.411,0-11.608,5.196-11.608,11.607l0,0
						C1478.036,612.458,1483.232,617.654,1489.644,617.654z"/>
					<path style="fill:#FFFFFF;" d="M1489.644,652.479h615.359c6.411,0,11.608-5.198,11.608-11.608l0,0
						c0-6.411-5.196-11.609-11.608-11.609h-615.359c-6.411,0-11.608,5.198-11.608,11.609l0,0
						C1478.036,647.281,1483.232,652.479,1489.644,652.479z"/>
					<path style="fill:#FFFFFF;" d="M1489.646,690.359h527.379c6.411,0,11.607-5.198,11.607-11.609l0,0
						c0-6.41-5.196-11.608-11.607-11.608h-527.379c-6.411,0-11.61,5.197-11.61,11.608l0,0
						C1478.036,685.161,1483.235,690.359,1489.646,690.359z"/>
				</g>
			</g>
		</g>
	</g>
</g>
</svg>
