<?xml version="1.0" encoding="UTF-8"?>
<svg id="Layer_2" data-name="Layer 2" xmlns="http://www.w3.org/2000/svg" viewBox="0 0 685.46 318.27">
  <defs>
    <style>
      .cls-1 {
        stroke-width: 2.83px;
      }

      .cls-1, .cls-2, .cls-3, .cls-4, .cls-5 {
        stroke: #d1d3d4;
        stroke-miterlimit: 10;
      }

      .cls-1, .cls-3, .cls-5 {
        fill: none;
      }

      .cls-2 {
        fill: #fff;
        stroke-width: .85px;
      }

      .cls-4 {
        stroke-linecap: round;
        stroke-width: 5.33px;
      }

      .cls-4, .cls-6, .cls-7 {
        fill: #a7a9ac;
      }

      .cls-6 {
        fill-rule: evenodd;
      }

      .cls-6, .cls-7, .cls-8 {
        stroke-width: 0px;
      }

      .cls-8 {
        fill: #d1d3d4;
      }

      .cls-5 {
        stroke-width: .47px;
      }
    </style>
  </defs>
  <g id="Layer_1-2" data-name="Layer 1">
    <g>
      <g>
        <circle class="cls-8" cx="258.49" cy="167.61" r="8.59"/>
        <g>
          <polyline class="cls-1" points="74.85 33.75 151.39 33.75 242.34 167.96"/>
          <polyline class="cls-1" points="75.67 302.33 152.22 302.33 243.17 168.12"/>
          <line class="cls-1" x1="76.85" y1="168.74" x2="244.34" y2="168.74"/>
        </g>
        <line class="cls-1" x1="274.66" y1="168.74" x2="321.27" y2="168.74"/>
      </g>
      <g>
        <path class="cls-7" d="M56.79,55.6l-4.59-13.77c2.42-4.21,3.69-9,3.69-13.88C55.89,12.54,43.36,0,27.95,0S0,12.54,0,27.95s12.54,27.95,27.95,27.95c4.4,0,8.77-1.05,12.67-3.04l15.03,3.96c.08.02.16.03.24.03.26,0,.51-.11.69-.3.24-.25.32-.62.21-.95ZM15.16,19.91h13.26c.52,0,.95.42.95.95s-.42.95-.95.95h-13.26c-.52,0-.95-.42-.95-.95s.42-.95.95-.95ZM40.74,36.96H15.16c-.52,0-.95-.42-.95-.95s.42-.95.95-.95h25.58c.52,0,.95.42.95.95s-.42.95-.95.95ZM40.74,29.38H15.16c-.52,0-.95-.42-.95-.95s.42-.95.95-.95h25.58c.52,0,.95.42.95.95s-.42.95-.95.95Z"/>
        <g id="Shopicon">
          <path class="cls-7" d="M22.99,147.96h-3.7c-2.71,0-4.93,2.22-4.93,4.93v29.55c0,2.71,2.22,4.93,4.93,4.93h3.7v-39.41Z"/>
          <path class="cls-7" d="M56.58,169.53l-12.62-12.61v-4.03c0-2.71-2.22-4.93-4.93-4.93h-8.63v39.41h8.63c2.71,0,4.93-2.22,4.93-4.93v-4.58l2.61,2.61,3.49-3.49-5.75-5.75-7.77-7.77c-.47-.47-.72-1.09-.72-1.76,0-.66.26-1.27.72-1.74.93-.93,2.56-.93,3.49,0l5.16,5.16,7.91,7.91-.09-.03.13.09c.16.24.67,1.17.67,3.16v16.03h-19.73c-2.36,0-4.45-2.01-4.85-4.69l-.03-.19h-4.99l.14.93c.77,5.06,4.95,8.88,9.73,8.88h24.67v-20.97c0-4.28-1.66-6.23-2.19-6.74Z"/>
        </g>
        <g id="Page-1">
          <g id="add">
            <path id="Combined-Shape" class="cls-6" d="M54.7,281.8l9.12,9.12v27.35H18.23v-36.47h36.47ZM53.56,286.36h-30.77v27.35h36.47v-21.65l-5.7-5.7ZM34.19,306.87v3.42h-6.84v-3.42h6.84ZM54.7,306.87v3.42h-15.95v-3.42h15.95ZM34.19,300.04v3.42h-6.84v-3.42h6.84ZM54.7,300.04v3.42h-15.95v-3.42h15.95ZM34.19,293.2v3.42h-6.84v-3.42h6.84ZM54.7,293.2v3.42h-15.95v-3.42h15.95Z"/>
          </g>
        </g>
      </g>
      <g>
        <rect class="cls-8" x="326.19" y="65.73" width="359.27" height="236.46" rx="23.51" ry="23.51"/>
        <g>
          <g>
            <rect class="cls-7" x="437.1" y="104.39" width="68.21" height="22.74" rx="7.94" ry="7.94"/>
            <rect class="cls-8" x="443.1" y="118.34" width="48.51" height="3.85"/>
            <rect class="cls-8" x="443.1" y="111.9" width="15.85" height="3.85"/>
          </g>
          <g>
            <rect class="cls-7" x="516.93" y="104.39" width="68.21" height="22.74" rx="7.94" ry="7.94"/>
            <rect class="cls-8" x="522.93" y="118.34" width="48.51" height="3.85"/>
            <rect class="cls-8" x="522.93" y="111.9" width="15.85" height="3.85"/>
          </g>
          <g>
            <rect class="cls-7" x="596.76" y="104.39" width="68.21" height="22.74" rx="7.94" ry="7.94"/>
            <rect class="cls-8" x="602.76" y="118.34" width="48.51" height="3.85"/>
            <rect class="cls-8" x="602.76" y="111.9" width="15.85" height="3.85"/>
          </g>
        </g>
        <g>
          <rect class="cls-7" x="333.27" y="247.63" width="44.84" height="29.56" rx="4.61" ry="4.61"/>
          <rect class="cls-7" x="333.27" y="97.63" width="69.22" height="9.79"/>
          <rect class="cls-7" x="333.27" y="119.54" width="35.62" height="3.28"/>
          <rect class="cls-7" x="333.27" y="127.12" width="35.62" height="3.28"/>
          <rect class="cls-7" x="333.27" y="134.7" width="35.62" height="3.28"/>
          <rect class="cls-7" x="333.27" y="142.28" width="35.62" height="3.28"/>
          <rect class="cls-7" x="333.27" y="149.86" width="35.62" height="3.28"/>
          <rect class="cls-7" x="333.27" y="157.44" width="49.26" height="3.28"/>
          <rect class="cls-7" x="333.27" y="165.02" width="42.38" height="3.28"/>
          <rect class="cls-7" x="333.27" y="172.6" width="35.62" height="3.28"/>
          <rect class="cls-7" x="333.27" y="180.18" width="35.62" height="3.28"/>
          <rect class="cls-7" x="333.27" y="187.75" width="35.62" height="3.28"/>
          <rect class="cls-7" x="333.27" y="206.7" width="35.62" height="3.28"/>
          <rect class="cls-7" x="333.27" y="213.52" width="35.62" height="3.28"/>
          <rect class="cls-7" x="333.27" y="220.34" width="38.12" height="3.28"/>
          <rect class="cls-7" x="333.27" y="227.16" width="35.62" height="3.28"/>
          <rect class="cls-7" x="333.27" y="233.99" width="35.62" height="3.28"/>
        </g>
        <g>
          <g>
            <path class="cls-7" d="M664.97,89.67c0,1.77-.58,3.4-1.55,4.72-1.45,1.97-3.79,3.24-6.41,3.24s-4.86-1.22-6.31-3.11c-1.04-1.34-1.65-3.02-1.65-4.85,0-4.39,3.56-7.96,7.96-7.96s7.96,3.57,7.96,7.96Z"/>
            <path class="cls-8" d="M663.42,94.39c-1.45,1.97-3.79,3.24-6.41,3.24s-4.86-1.22-6.31-3.11c.49-3.08,3.15-5.44,6.37-5.44s5.81,2.29,6.35,5.31Z"/>
            <circle class="cls-8" cx="657.01" cy="85.41" r="2.99"/>
          </g>
          <g>
            <rect class="cls-7" x="491.03" y="83.5" width="106.36" height="9.79" rx="4.89" ry="4.89"/>
            <g>
              <circle class="cls-8" cx="590.7" cy="88.03" r="3.72"/>
              <line class="cls-5" x1="590.7" y1="88.03" x2="594.74" y2="92.07"/>
            </g>
          </g>
        </g>
        <g>
          <rect class="cls-7" x="432.17" y="226.87" width="112.04" height="50.32" rx="9.5" ry="9.5"/>
          <path class="cls-4" d="M445.08,262.03c9.84-14.1,25.08-23.15,42.2-23.15s32.35,9.05,42.19,23.15"/>
          <rect class="cls-8" x="471.87" y="260.51" width="30.82" height="4.8"/>
          <circle class="cls-7" cx="594.94" cy="255.12" r="24.17"/>
          <line class="cls-2" x1="594.94" y1="255.12" x2="614.33" y2="240.71"/>
          <line class="cls-2" x1="594.94" y1="255.12" x2="617.75" y2="263.1"/>
        </g>
        <g>
          <rect class="cls-7" x="432.17" y="143.42" width="232.8" height="75.33" rx="16.75" ry="16.75"/>
          <polyline class="cls-3" points="445.18 206.7 502.02 187.37 535.37 202.91 585.14 176.2 608.95 200.01 650.7 157.44"/>
          <rect class="cls-8" x="445.18" y="153.14" width="48.51" height="2.4"/>
        </g>
      </g>
    </g>
  </g>
</svg>