<?xml version="1.0" encoding="UTF-8"?>
<svg id="Layer_2" data-name="Layer 2" xmlns="http://www.w3.org/2000/svg" viewBox="0 0 511.7 132.97">
  <defs>
    <style>
      .cls-1 {
        fill: #aab3a5;
      }

      .cls-1, .cls-2, .cls-3, .cls-4 {
        stroke-width: 0px;
      }

      .cls-2 {
        fill: #9c4c43;
      }

      .cls-3 {
        fill: #2cb34a;
      }

      .cls-4 {
        fill: #e04445;
      }
    </style>
  </defs>
  <g id="Layer_1-2" data-name="Layer 1">
    <g>
      <path class="cls-2" d="M120.23,64.46c13.16,3.31,24.2-13.7,24.2-13.7,10.88,16.99,19.68,3.31,19.68,3.31,0,0-8.12,13.7-33.98,13.16l-9.91-2.77Z"/>
      <path class="cls-4" d="M171.07,36.26s-18.77,38.67-51.03,28.43c0,0,58.88,18.15,80.46-14.23l-29.44-14.2Z"/>
      <path class="cls-1" d="M189.53,63.49v53.12h-60.23V52.29c-1.55-.36-2.89-.81-3.85-1.17v71.99c0,5.45,3.79,9.87,8.47,9.87h51c4.67,0,8.46-4.42,8.46-9.87v-62.27c-1.26.94-2.75,1.93-3.85,2.65"/>
      <path class="cls-1" d="M129.3,10.75h60.23v32.09l3.85,2.23V9.87c0-5.45-3.79-9.87-8.46-9.87h-51c-4.67,0-8.46,4.42-8.46,9.87v45.07c1.72-.24,3.02-.65,3.85-.97V10.75Z"/>
      <path class="cls-3" d="M115.16,57.21v38.6h-23.65v-34.73c0-9.71-3.98-13.82-10.21-13.82-6.85,0-11.83,4.61-11.83,15.06v33.49h-23.65v-34.73c0-9.71-3.86-13.82-10.21-13.82-6.97,0-11.95,4.61-11.95,15.06v33.49H0V28.33h22.54v7.1c5.1-5.48,12.2-8.22,20.17-8.22,9.21,0,17.06,3.36,21.79,10.58,5.35-6.72,13.69-10.58,23.41-10.58,15.68,0,27.26,9.09,27.26,30"/>
      <path class="cls-3" d="M281.38,62.07c0,21.42-14.82,34.86-33.12,34.86-7.84,0-14.19-2.37-18.8-7.1v30.13h-23.65V28.34h22.53v6.72c4.48-5.35,11.08-7.84,19.92-7.84,18.3,0,33.12,13.44,33.12,34.86M257.48,62.07c0-10.2-6.23-16.06-14.19-16.06s-14.19,5.86-14.19,16.06,6.23,16.06,14.19,16.06,14.19-5.85,14.19-16.06"/>
      <path class="cls-3" d="M360.93,68.05h-49.05c1.99,6.84,7.84,10.83,16.56,10.83,6.6,0,10.95-1.87,15.56-5.86l12.45,12.95c-6.47,7.22-15.93,10.96-28.76,10.96-24.03,0-39.59-14.82-39.59-34.99s15.81-34.73,37.1-34.73c19.92,0,36.1,12.7,36.1,34.98,0,1.74-.25,3.99-.38,5.85M311.51,55.6h27.64c-1.25-7.1-6.48-11.57-13.82-11.57s-12.45,4.48-13.82,11.57"/>
      <path class="cls-3" d="M366.91,89.96l7.1-16.19c6.23,3.86,15.31,6.23,23.53,6.23s10.58-1.74,10.58-4.61c0-9.09-39.84,1.24-39.84-25.77,0-12.7,11.7-22.41,32.87-22.41,9.46,0,19.92,1.99,26.64,5.73l-7.09,16.06c-6.72-3.74-13.45-4.98-19.42-4.98-7.97,0-10.83,2.24-10.83,4.73,0,9.34,39.72-.75,39.72,26.02,0,12.45-11.45,22.16-33.36,22.16-11.45,0-23.28-2.87-29.88-6.97"/>
      <path class="cls-3" d="M511.7,28.33v67.48h-22.53v-6.72c-4.48,5.35-11.08,7.85-19.92,7.85-18.3,0-33.12-13.45-33.12-34.99s14.81-34.73,33.12-34.73c7.84,0,14.19,2.24,18.8,6.97v-5.85h23.65ZM488.42,61.94c0-10.21-6.22-15.94-14.19-15.94s-14.19,5.73-14.19,15.94,6.22,16.19,14.19,16.19,14.19-5.85,14.19-16.19"/>
    </g>
  </g>
</svg>