<?xml version="1.0" encoding="utf-8"?>
<!-- Generator: Adobe Illustrator 28.2.0, SVG Export Plug-In . SVG Version: 6.00 Build 0)  -->
<svg version="1.1" id="Layer_1" xmlns="http://www.w3.org/2000/svg" xmlns:xlink="http://www.w3.org/1999/xlink" x="0px" y="0px"
	 viewBox="0 0 800 800" style="enable-background:new 0 0 800 800;" xml:space="preserve">
<style type="text/css">
	.st0{fill:#0E4595;}
	.st1{fill:#F2AE14;}
</style>
<path class="st0" d="M300.7,501.3l34.2-200.8h54.7l-34.2,200.8H300.7z M553.1,304.8c-10.8-4.1-27.8-8.4-49-8.4
	c-54.1,0-92.2,27.2-92.5,66.3c-0.3,28.9,27.2,44.9,48,54.5c21.3,9.8,28.5,16.1,28.4,24.9c-0.1,13.5-17,19.6-32.7,19.6
	c-21.9,0-33.5-3-51.5-10.5l-7.1-3.2l-7.7,44.9c12.8,5.6,36.4,10.5,61,10.7c57.5,0,94.9-26.9,95.3-68.6c0.2-22.8-14.4-40.2-45.9-54.6
	c-19.1-9.3-30.8-15.5-30.7-24.9c0-8.3,9.9-17.3,31.3-17.3c17.9-0.3,30.9,3.6,41,7.7l4.9,2.3L553.1,304.8 M694,300.5h-42.3
	c-13.1,0-22.9,3.6-28.7,16.7l-81.3,184h57.5c0,0,9.4-24.7,11.5-30.2c6.3,0,62.1,0.1,70.1,0.1c1.6,7,6.7,30.1,6.7,30.1h50.8
	L694,300.5L694,300.5z M626.9,430.1c4.5-11.6,21.8-56.1,21.8-56.1c-0.3,0.5,4.5-11.6,7.3-19.2l3.7,17.3c0,0,10.5,47.9,12.7,58H626.9
	z M254.3,300.5l-53.6,136.9l-5.7-27.8c-10-32.1-41.1-66.8-75.8-84.2l49,175.6l57.9-0.1l86.2-200.4L254.3,300.5"/>
<path class="st1" d="M150.7,300.5H62.4l-0.7,4.2c68.7,16.6,114.1,56.8,132.9,105l-19.2-92.3C172.2,304.7,162.6,300.9,150.7,300.5"/>
</svg>
